%TF.GenerationSoftware,KiCad,Pcbnew,(6.0.11)*%
%TF.CreationDate,2023-02-16T14:33:20-08:00*%
%TF.ProjectId,Lab 4 Exercise 2,4c616220-3420-4457-9865-726369736520,rev?*%
%TF.SameCoordinates,Original*%
%TF.FileFunction,Legend,Top*%
%TF.FilePolarity,Positive*%
%FSLAX46Y46*%
G04 Gerber Fmt 4.6, Leading zero omitted, Abs format (unit mm)*
G04 Created by KiCad (PCBNEW (6.0.11)) date 2023-02-16 14:33:20*
%MOMM*%
%LPD*%
G01*
G04 APERTURE LIST*
%ADD10C,0.150000*%
%ADD11C,0.120000*%
G04 APERTURE END LIST*
D10*
X175323809Y-116768571D02*
X175657142Y-116768571D01*
X175800000Y-117292380D02*
X175323809Y-117292380D01*
X175323809Y-116292380D01*
X175800000Y-116292380D01*
X176228571Y-116768571D02*
X176561904Y-116768571D01*
X176704761Y-117292380D02*
X176228571Y-117292380D01*
X176228571Y-116292380D01*
X176704761Y-116292380D01*
X177847619Y-116387619D02*
X177895238Y-116340000D01*
X177990476Y-116292380D01*
X178228571Y-116292380D01*
X178323809Y-116340000D01*
X178371428Y-116387619D01*
X178419047Y-116482857D01*
X178419047Y-116578095D01*
X178371428Y-116720952D01*
X177800000Y-117292380D01*
X178419047Y-117292380D01*
X179038095Y-116292380D02*
X179133333Y-116292380D01*
X179228571Y-116340000D01*
X179276190Y-116387619D01*
X179323809Y-116482857D01*
X179371428Y-116673333D01*
X179371428Y-116911428D01*
X179323809Y-117101904D01*
X179276190Y-117197142D01*
X179228571Y-117244761D01*
X179133333Y-117292380D01*
X179038095Y-117292380D01*
X178942857Y-117244761D01*
X178895238Y-117197142D01*
X178847619Y-117101904D01*
X178800000Y-116911428D01*
X178800000Y-116673333D01*
X178847619Y-116482857D01*
X178895238Y-116387619D01*
X178942857Y-116340000D01*
X179038095Y-116292380D01*
X180323809Y-117292380D02*
X179752380Y-117292380D01*
X180038095Y-117292380D02*
X180038095Y-116292380D01*
X179942857Y-116435238D01*
X179847619Y-116530476D01*
X179752380Y-116578095D01*
X174395238Y-119546666D02*
X174871428Y-119546666D01*
X174300000Y-119832380D02*
X174633333Y-118832380D01*
X174966666Y-119832380D01*
X175300000Y-119832380D02*
X175300000Y-119165714D01*
X175300000Y-119356190D02*
X175347619Y-119260952D01*
X175395238Y-119213333D01*
X175490476Y-119165714D01*
X175585714Y-119165714D01*
X175823809Y-119165714D02*
X176061904Y-119832380D01*
X176300000Y-119165714D02*
X176061904Y-119832380D01*
X175966666Y-120070476D01*
X175919047Y-120118095D01*
X175823809Y-120165714D01*
X177109523Y-119832380D02*
X177109523Y-119308571D01*
X177061904Y-119213333D01*
X176966666Y-119165714D01*
X176776190Y-119165714D01*
X176680952Y-119213333D01*
X177109523Y-119784761D02*
X177014285Y-119832380D01*
X176776190Y-119832380D01*
X176680952Y-119784761D01*
X176633333Y-119689523D01*
X176633333Y-119594285D01*
X176680952Y-119499047D01*
X176776190Y-119451428D01*
X177014285Y-119451428D01*
X177109523Y-119403809D01*
X178871428Y-118880000D02*
X178776190Y-118832380D01*
X178633333Y-118832380D01*
X178490476Y-118880000D01*
X178395238Y-118975238D01*
X178347619Y-119070476D01*
X178300000Y-119260952D01*
X178300000Y-119403809D01*
X178347619Y-119594285D01*
X178395238Y-119689523D01*
X178490476Y-119784761D01*
X178633333Y-119832380D01*
X178728571Y-119832380D01*
X178871428Y-119784761D01*
X178919047Y-119737142D01*
X178919047Y-119403809D01*
X178728571Y-119403809D01*
X179490476Y-119832380D02*
X179395238Y-119784761D01*
X179347619Y-119737142D01*
X179300000Y-119641904D01*
X179300000Y-119356190D01*
X179347619Y-119260952D01*
X179395238Y-119213333D01*
X179490476Y-119165714D01*
X179633333Y-119165714D01*
X179728571Y-119213333D01*
X179776190Y-119260952D01*
X179823809Y-119356190D01*
X179823809Y-119641904D01*
X179776190Y-119737142D01*
X179728571Y-119784761D01*
X179633333Y-119832380D01*
X179490476Y-119832380D01*
X180633333Y-119784761D02*
X180538095Y-119832380D01*
X180347619Y-119832380D01*
X180252380Y-119784761D01*
X180204761Y-119689523D01*
X180204761Y-119308571D01*
X180252380Y-119213333D01*
X180347619Y-119165714D01*
X180538095Y-119165714D01*
X180633333Y-119213333D01*
X180680952Y-119308571D01*
X180680952Y-119403809D01*
X180204761Y-119499047D01*
X181252380Y-119832380D02*
X181157142Y-119784761D01*
X181109523Y-119689523D01*
X181109523Y-118832380D01*
%TO.C,C2*%
X166317142Y-99226666D02*
X166364761Y-99274285D01*
X166412380Y-99417142D01*
X166412380Y-99512380D01*
X166364761Y-99655238D01*
X166269523Y-99750476D01*
X166174285Y-99798095D01*
X165983809Y-99845714D01*
X165840952Y-99845714D01*
X165650476Y-99798095D01*
X165555238Y-99750476D01*
X165460000Y-99655238D01*
X165412380Y-99512380D01*
X165412380Y-99417142D01*
X165460000Y-99274285D01*
X165507619Y-99226666D01*
X165507619Y-98845714D02*
X165460000Y-98798095D01*
X165412380Y-98702857D01*
X165412380Y-98464761D01*
X165460000Y-98369523D01*
X165507619Y-98321904D01*
X165602857Y-98274285D01*
X165698095Y-98274285D01*
X165840952Y-98321904D01*
X166412380Y-98893333D01*
X166412380Y-98274285D01*
%TO.C,R2*%
X146858333Y-118942380D02*
X146525000Y-118466190D01*
X146286904Y-118942380D02*
X146286904Y-117942380D01*
X146667857Y-117942380D01*
X146763095Y-117990000D01*
X146810714Y-118037619D01*
X146858333Y-118132857D01*
X146858333Y-118275714D01*
X146810714Y-118370952D01*
X146763095Y-118418571D01*
X146667857Y-118466190D01*
X146286904Y-118466190D01*
X147239285Y-118037619D02*
X147286904Y-117990000D01*
X147382142Y-117942380D01*
X147620238Y-117942380D01*
X147715476Y-117990000D01*
X147763095Y-118037619D01*
X147810714Y-118132857D01*
X147810714Y-118228095D01*
X147763095Y-118370952D01*
X147191666Y-118942380D01*
X147810714Y-118942380D01*
%TO.C,C1*%
X130687142Y-109214166D02*
X130734761Y-109261785D01*
X130782380Y-109404642D01*
X130782380Y-109499880D01*
X130734761Y-109642738D01*
X130639523Y-109737976D01*
X130544285Y-109785595D01*
X130353809Y-109833214D01*
X130210952Y-109833214D01*
X130020476Y-109785595D01*
X129925238Y-109737976D01*
X129830000Y-109642738D01*
X129782380Y-109499880D01*
X129782380Y-109404642D01*
X129830000Y-109261785D01*
X129877619Y-109214166D01*
X130782380Y-108261785D02*
X130782380Y-108833214D01*
X130782380Y-108547500D02*
X129782380Y-108547500D01*
X129925238Y-108642738D01*
X130020476Y-108737976D01*
X130068095Y-108833214D01*
%TO.C,R1*%
X157042380Y-109386666D02*
X156566190Y-109720000D01*
X157042380Y-109958095D02*
X156042380Y-109958095D01*
X156042380Y-109577142D01*
X156090000Y-109481904D01*
X156137619Y-109434285D01*
X156232857Y-109386666D01*
X156375714Y-109386666D01*
X156470952Y-109434285D01*
X156518571Y-109481904D01*
X156566190Y-109577142D01*
X156566190Y-109958095D01*
X157042380Y-108434285D02*
X157042380Y-109005714D01*
X157042380Y-108720000D02*
X156042380Y-108720000D01*
X156185238Y-108815238D01*
X156280476Y-108910476D01*
X156328095Y-109005714D01*
%TO.C,R3*%
X140264525Y-112932380D02*
X139931192Y-112456190D01*
X139693096Y-112932380D02*
X139693096Y-111932380D01*
X140074049Y-111932380D01*
X140169287Y-111980000D01*
X140216906Y-112027619D01*
X140264525Y-112122857D01*
X140264525Y-112265714D01*
X140216906Y-112360952D01*
X140169287Y-112408571D01*
X140074049Y-112456190D01*
X139693096Y-112456190D01*
X140597858Y-111932380D02*
X141216906Y-111932380D01*
X140883572Y-112313333D01*
X141026430Y-112313333D01*
X141121668Y-112360952D01*
X141169287Y-112408571D01*
X141216906Y-112503809D01*
X141216906Y-112741904D01*
X141169287Y-112837142D01*
X141121668Y-112884761D01*
X141026430Y-112932380D01*
X140740715Y-112932380D01*
X140645477Y-112884761D01*
X140597858Y-112837142D01*
%TO.C,D2*%
X140484880Y-99798095D02*
X139484880Y-99798095D01*
X139484880Y-99560000D01*
X139532500Y-99417142D01*
X139627738Y-99321904D01*
X139722976Y-99274285D01*
X139913452Y-99226666D01*
X140056309Y-99226666D01*
X140246785Y-99274285D01*
X140342023Y-99321904D01*
X140437261Y-99417142D01*
X140484880Y-99560000D01*
X140484880Y-99798095D01*
X139580119Y-98845714D02*
X139532500Y-98798095D01*
X139484880Y-98702857D01*
X139484880Y-98464761D01*
X139532500Y-98369523D01*
X139580119Y-98321904D01*
X139675357Y-98274285D01*
X139770595Y-98274285D01*
X139913452Y-98321904D01*
X140484880Y-98893333D01*
X140484880Y-98274285D01*
%TO.C,D1*%
X146581904Y-107852380D02*
X146581904Y-106852380D01*
X146820000Y-106852380D01*
X146962857Y-106900000D01*
X147058095Y-106995238D01*
X147105714Y-107090476D01*
X147153333Y-107280952D01*
X147153333Y-107423809D01*
X147105714Y-107614285D01*
X147058095Y-107709523D01*
X146962857Y-107804761D01*
X146820000Y-107852380D01*
X146581904Y-107852380D01*
X148105714Y-107852380D02*
X147534285Y-107852380D01*
X147820000Y-107852380D02*
X147820000Y-106852380D01*
X147724761Y-106995238D01*
X147629523Y-107090476D01*
X147534285Y-107138095D01*
%TO.C,J1*%
X154392380Y-89233333D02*
X155106666Y-89233333D01*
X155249523Y-89280952D01*
X155344761Y-89376190D01*
X155392380Y-89519047D01*
X155392380Y-89614285D01*
X155392380Y-88233333D02*
X155392380Y-88804761D01*
X155392380Y-88519047D02*
X154392380Y-88519047D01*
X154535238Y-88614285D01*
X154630476Y-88709523D01*
X154678095Y-88804761D01*
%TO.C,R4*%
X138520397Y-107462380D02*
X138187064Y-106986190D01*
X137948968Y-107462380D02*
X137948968Y-106462380D01*
X138329921Y-106462380D01*
X138425159Y-106510000D01*
X138472778Y-106557619D01*
X138520397Y-106652857D01*
X138520397Y-106795714D01*
X138472778Y-106890952D01*
X138425159Y-106938571D01*
X138329921Y-106986190D01*
X137948968Y-106986190D01*
X139377540Y-106795714D02*
X139377540Y-107462380D01*
X139139444Y-106414761D02*
X138901349Y-107129047D01*
X139520397Y-107129047D01*
%TO.C,U1*%
X149098095Y-95112380D02*
X149098095Y-95921904D01*
X149145714Y-96017142D01*
X149193333Y-96064761D01*
X149288571Y-96112380D01*
X149479047Y-96112380D01*
X149574285Y-96064761D01*
X149621904Y-96017142D01*
X149669523Y-95921904D01*
X149669523Y-95112380D01*
X150669523Y-96112380D02*
X150098095Y-96112380D01*
X150383809Y-96112380D02*
X150383809Y-95112380D01*
X150288571Y-95255238D01*
X150193333Y-95350476D01*
X150098095Y-95398095D01*
D11*
%TO.C,C2*%
X166905000Y-99321252D02*
X166905000Y-98798748D01*
X168375000Y-99321252D02*
X168375000Y-98798748D01*
%TO.C,R2*%
X147252064Y-116105000D02*
X146797936Y-116105000D01*
X147252064Y-117575000D02*
X146797936Y-117575000D01*
%TO.C,C1*%
X131145000Y-107447500D02*
X131145000Y-111532500D01*
X131145000Y-111532500D02*
X133015000Y-111532500D01*
X133015000Y-111532500D02*
X133015000Y-107447500D01*
%TO.C,R1*%
X154205000Y-108992936D02*
X154205000Y-109447064D01*
X155675000Y-108992936D02*
X155675000Y-109447064D01*
%TO.C,R3*%
X140658256Y-110095000D02*
X140204128Y-110095000D01*
X140658256Y-111565000D02*
X140204128Y-111565000D01*
%TO.C,D2*%
X137077500Y-96600000D02*
X137077500Y-100660000D01*
X139347500Y-100660000D02*
X139347500Y-96600000D01*
X139347500Y-96600000D02*
X137077500Y-96600000D01*
%TO.C,D1*%
X144860000Y-108085000D02*
X144860000Y-110355000D01*
X144860000Y-110355000D02*
X148920000Y-110355000D01*
X148920000Y-108085000D02*
X144860000Y-108085000D01*
%TO.C,J1*%
X162560000Y-83820000D02*
X162560000Y-93980000D01*
X163830000Y-93980000D02*
X163830000Y-83820000D01*
X156210000Y-83820000D02*
X156210000Y-93980000D01*
X163830000Y-83820000D02*
X156210000Y-83820000D01*
X156210000Y-93980000D02*
X163830000Y-93980000D01*
%TO.C,R4*%
X138914128Y-104625000D02*
X138460000Y-104625000D01*
X138914128Y-106095000D02*
X138460000Y-106095000D01*
%TO.C,U1*%
X149860000Y-96500000D02*
X151810000Y-96500000D01*
X149860000Y-101620000D02*
X151810000Y-101620000D01*
X149860000Y-96500000D02*
X146410000Y-96500000D01*
X149860000Y-101620000D02*
X147910000Y-101620000D01*
%TD*%
M02*
