%TF.GenerationSoftware,KiCad,Pcbnew,(6.0.11)*%
%TF.CreationDate,2023-02-16T14:33:19-08:00*%
%TF.ProjectId,Lab 4 Exercise 2,4c616220-3420-4457-9865-726369736520,rev?*%
%TF.SameCoordinates,Original*%
%TF.FileFunction,Copper,L1,Top*%
%TF.FilePolarity,Positive*%
%FSLAX46Y46*%
G04 Gerber Fmt 4.6, Leading zero omitted, Abs format (unit mm)*
G04 Created by KiCad (PCBNEW (6.0.11)) date 2023-02-16 14:33:19*
%MOMM*%
%LPD*%
G01*
G04 APERTURE LIST*
G04 Aperture macros list*
%AMRoundRect*
0 Rectangle with rounded corners*
0 $1 Rounding radius*
0 $2 $3 $4 $5 $6 $7 $8 $9 X,Y pos of 4 corners*
0 Add a 4 corners polygon primitive as box body*
4,1,4,$2,$3,$4,$5,$6,$7,$8,$9,$2,$3,0*
0 Add four circle primitives for the rounded corners*
1,1,$1+$1,$2,$3*
1,1,$1+$1,$4,$5*
1,1,$1+$1,$6,$7*
1,1,$1+$1,$8,$9*
0 Add four rect primitives between the rounded corners*
20,1,$1+$1,$2,$3,$4,$5,0*
20,1,$1+$1,$4,$5,$6,$7,0*
20,1,$1+$1,$6,$7,$8,$9,0*
20,1,$1+$1,$8,$9,$2,$3,0*%
G04 Aperture macros list end*
%TA.AperFunction,SMDPad,CuDef*%
%ADD10RoundRect,0.250000X0.475000X-0.337500X0.475000X0.337500X-0.475000X0.337500X-0.475000X-0.337500X0*%
%TD*%
%TA.AperFunction,SMDPad,CuDef*%
%ADD11RoundRect,0.250000X0.350000X0.450000X-0.350000X0.450000X-0.350000X-0.450000X0.350000X-0.450000X0*%
%TD*%
%TA.AperFunction,SMDPad,CuDef*%
%ADD12RoundRect,0.250000X0.425000X-0.537500X0.425000X0.537500X-0.425000X0.537500X-0.425000X-0.537500X0*%
%TD*%
%TA.AperFunction,SMDPad,CuDef*%
%ADD13RoundRect,0.250000X-0.450000X0.350000X-0.450000X-0.350000X0.450000X-0.350000X0.450000X0.350000X0*%
%TD*%
%TA.AperFunction,SMDPad,CuDef*%
%ADD14RoundRect,0.250001X-0.624999X0.462499X-0.624999X-0.462499X0.624999X-0.462499X0.624999X0.462499X0*%
%TD*%
%TA.AperFunction,SMDPad,CuDef*%
%ADD15RoundRect,0.250001X-0.462499X-0.624999X0.462499X-0.624999X0.462499X0.624999X-0.462499X0.624999X0*%
%TD*%
%TA.AperFunction,ComponentPad*%
%ADD16R,3.000000X3.000000*%
%TD*%
%TA.AperFunction,ComponentPad*%
%ADD17C,3.000000*%
%TD*%
%TA.AperFunction,SMDPad,CuDef*%
%ADD18RoundRect,0.150000X-0.825000X-0.150000X0.825000X-0.150000X0.825000X0.150000X-0.825000X0.150000X0*%
%TD*%
%TA.AperFunction,SMDPad,CuDef*%
%ADD19R,2.290000X3.000000*%
%TD*%
%TA.AperFunction,ViaPad*%
%ADD20C,0.800000*%
%TD*%
%TA.AperFunction,Conductor*%
%ADD21C,0.250000*%
%TD*%
G04 APERTURE END LIST*
D10*
%TO.P,C2,1*%
%TO.N,Net-(C2-Pad1)*%
X167640000Y-100097500D03*
%TO.P,C2,2*%
%TO.N,GND*%
X167640000Y-98022500D03*
%TD*%
D11*
%TO.P,R2,1*%
%TO.N,Net-(R1-Pad2)*%
X148025000Y-116840000D03*
%TO.P,R2,2*%
%TO.N,Net-(C1-Pad1)*%
X146025000Y-116840000D03*
%TD*%
D12*
%TO.P,C1,1*%
%TO.N,Net-(C1-Pad1)*%
X132080000Y-110485000D03*
%TO.P,C1,2*%
%TO.N,GND*%
X132080000Y-107610000D03*
%TD*%
D13*
%TO.P,R1,1*%
%TO.N,+9V*%
X154940000Y-108220000D03*
%TO.P,R1,2*%
%TO.N,Net-(R1-Pad2)*%
X154940000Y-110220000D03*
%TD*%
D11*
%TO.P,R3,1*%
%TO.N,Net-(D1-Pad1)*%
X141431192Y-110830000D03*
%TO.P,R3,2*%
%TO.N,/pin_3*%
X139431192Y-110830000D03*
%TD*%
D14*
%TO.P,D2,1,K*%
%TO.N,GND*%
X138212500Y-97572500D03*
%TO.P,D2,2,A*%
%TO.N,Net-(D2-Pad2)*%
X138212500Y-100547500D03*
%TD*%
D15*
%TO.P,D1,1,K*%
%TO.N,Net-(D1-Pad1)*%
X145832500Y-109220000D03*
%TO.P,D1,2,A*%
%TO.N,+9V*%
X148807500Y-109220000D03*
%TD*%
D16*
%TO.P,J1,1,Pin_1*%
%TO.N,+9V*%
X160020000Y-91440000D03*
D17*
%TO.P,J1,2,Pin_2*%
%TO.N,GND*%
X160020000Y-86360000D03*
%TD*%
D11*
%TO.P,R4,1*%
%TO.N,/pin_3*%
X139687064Y-105360000D03*
%TO.P,R4,2*%
%TO.N,Net-(D2-Pad2)*%
X137687064Y-105360000D03*
%TD*%
D18*
%TO.P,U1,1,GND*%
%TO.N,GND*%
X147385000Y-97155000D03*
%TO.P,U1,2,TR*%
%TO.N,/pin_2*%
X147385000Y-98425000D03*
%TO.P,U1,3,Q*%
%TO.N,/pin_3*%
X147385000Y-99695000D03*
%TO.P,U1,4,R*%
%TO.N,+9V*%
X147385000Y-100965000D03*
%TO.P,U1,5,CV*%
%TO.N,Net-(C2-Pad1)*%
X152335000Y-100965000D03*
%TO.P,U1,6,THR*%
%TO.N,/pin_2*%
X152335000Y-99695000D03*
%TO.P,U1,7,DIS*%
%TO.N,/pin_7*%
X152335000Y-98425000D03*
%TO.P,U1,8,VCC*%
%TO.N,+9V*%
X152335000Y-97155000D03*
D19*
%TO.P,U1,9*%
%TO.N,N/C*%
X149860000Y-99060000D03*
%TD*%
D20*
%TO.N,+9V*%
X152400000Y-109220000D03*
X154940000Y-96520000D03*
X144780000Y-101600000D03*
%TO.N,/pin_2*%
X157480000Y-99060000D03*
X144780000Y-99060000D03*
%TD*%
D21*
%TO.N,Net-(C1-Pad1)*%
X132080000Y-110485000D02*
X138435000Y-116840000D01*
X138435000Y-116840000D02*
X146025000Y-116840000D01*
%TO.N,GND*%
X138212500Y-97572500D02*
X132080000Y-103705000D01*
X147385000Y-97155000D02*
X147320000Y-97090000D01*
X138630000Y-97155000D02*
X147385000Y-97155000D01*
X138212500Y-97572500D02*
X138630000Y-97155000D01*
X147320000Y-97090000D02*
X147320000Y-86360000D01*
X160020000Y-86360000D02*
X167640000Y-86360000D01*
X132080000Y-103705000D02*
X132080000Y-107610000D01*
X147320000Y-86360000D02*
X160020000Y-86360000D01*
X167640000Y-86360000D02*
X167640000Y-98022500D01*
%TO.N,Net-(C2-Pad1)*%
X166772500Y-100965000D02*
X167640000Y-100097500D01*
X152335000Y-100965000D02*
X166772500Y-100965000D01*
%TO.N,Net-(D1-Pad1)*%
X143041192Y-109220000D02*
X145232500Y-109220000D01*
X141431192Y-110830000D02*
X143041192Y-109220000D01*
%TO.N,+9V*%
X152400000Y-97090000D02*
X152335000Y-97155000D01*
X152970000Y-96520000D02*
X154940000Y-96520000D01*
X154940000Y-108220000D02*
X153940000Y-109220000D01*
X146750000Y-101600000D02*
X147385000Y-100965000D01*
X144780000Y-101600000D02*
X146750000Y-101600000D01*
X152400000Y-91440000D02*
X152400000Y-97090000D01*
X160020000Y-91440000D02*
X152400000Y-91440000D01*
X152335000Y-97155000D02*
X152970000Y-96520000D01*
X153940000Y-109220000D02*
X148807500Y-109220000D01*
%TO.N,Net-(D2-Pad2)*%
X138212500Y-100547500D02*
X137687064Y-101072936D01*
X137687064Y-101072936D02*
X137687064Y-105360000D01*
%TO.N,Net-(R1-Pad2)*%
X148025000Y-116840000D02*
X148320000Y-116840000D01*
X148320000Y-116840000D02*
X154940000Y-110220000D01*
%TO.N,/pin_3*%
X145352064Y-99695000D02*
X147385000Y-99695000D01*
X139687064Y-105360000D02*
X145352064Y-99695000D01*
X139687064Y-105360000D02*
X139687064Y-110574128D01*
X139687064Y-110574128D02*
X139431192Y-110830000D01*
%TO.N,/pin_2*%
X146750000Y-99060000D02*
X144780000Y-99060000D01*
X152970000Y-99060000D02*
X157480000Y-99060000D01*
X147385000Y-98425000D02*
X146750000Y-99060000D01*
X152335000Y-99695000D02*
X152970000Y-99060000D01*
%TD*%
%TA.AperFunction,Conductor*%
%TO.N,GND*%
G36*
X175806129Y-81300002D02*
G01*
X175852622Y-81353658D01*
X175862726Y-81423932D01*
X175833232Y-81488512D01*
X175821006Y-81500801D01*
X175663716Y-81638498D01*
X175433860Y-81890223D01*
X175233495Y-82166001D01*
X175065121Y-82462394D01*
X175063734Y-82465629D01*
X175063732Y-82465634D01*
X174932219Y-82772477D01*
X174930834Y-82775709D01*
X174832309Y-83102040D01*
X174770773Y-83437320D01*
X174746995Y-83777369D01*
X174747890Y-83798727D01*
X174761269Y-84117950D01*
X174761804Y-84121408D01*
X174761805Y-84121415D01*
X174812881Y-84451344D01*
X174813419Y-84454817D01*
X174902794Y-84783772D01*
X175028280Y-85100714D01*
X175029926Y-85103810D01*
X175029928Y-85103814D01*
X175050811Y-85143089D01*
X175188314Y-85401693D01*
X175190299Y-85404592D01*
X175378909Y-85680051D01*
X175378914Y-85680057D01*
X175380900Y-85682958D01*
X175603638Y-85941002D01*
X175606208Y-85943382D01*
X175606212Y-85943386D01*
X175698188Y-86028557D01*
X175853751Y-86172610D01*
X176128124Y-86374895D01*
X176131161Y-86376649D01*
X176131165Y-86376651D01*
X176179602Y-86404616D01*
X176423334Y-86545335D01*
X176503185Y-86580221D01*
X176732482Y-86680399D01*
X176732492Y-86680403D01*
X176735704Y-86681806D01*
X176739061Y-86682845D01*
X176739066Y-86682847D01*
X176897925Y-86732022D01*
X177061339Y-86782607D01*
X177064795Y-86783266D01*
X177064794Y-86783266D01*
X177392730Y-86845823D01*
X177392735Y-86845824D01*
X177396181Y-86846481D01*
X177620197Y-86863718D01*
X177732559Y-86872364D01*
X177732560Y-86872364D01*
X177736056Y-86872633D01*
X177948407Y-86865218D01*
X178073214Y-86860860D01*
X178073219Y-86860860D01*
X178076729Y-86860737D01*
X178245341Y-86835838D01*
X178410473Y-86811454D01*
X178410478Y-86811453D01*
X178413952Y-86810940D01*
X178417344Y-86810044D01*
X178417348Y-86810043D01*
X178740132Y-86724760D01*
X178740133Y-86724760D01*
X178743523Y-86723864D01*
X179061333Y-86600593D01*
X179363422Y-86442665D01*
X179646024Y-86252047D01*
X179905617Y-86031116D01*
X180122150Y-85800532D01*
X180183363Y-85764567D01*
X180254303Y-85767405D01*
X180312447Y-85808145D01*
X180339335Y-85873853D01*
X180340000Y-85886785D01*
X180340000Y-119254000D01*
X180319998Y-119322121D01*
X180266342Y-119368614D01*
X180214000Y-119380000D01*
X127126000Y-119380000D01*
X127057879Y-119359998D01*
X127011386Y-119306342D01*
X127000000Y-119254000D01*
X127000000Y-111072900D01*
X130896500Y-111072900D01*
X130896837Y-111076146D01*
X130896837Y-111076150D01*
X130906417Y-111168478D01*
X130907474Y-111178666D01*
X130963450Y-111346446D01*
X131056522Y-111496848D01*
X131181697Y-111621805D01*
X131332262Y-111714615D01*
X131412005Y-111741064D01*
X131493611Y-111768132D01*
X131493613Y-111768132D01*
X131500139Y-111770297D01*
X131506975Y-111770997D01*
X131506978Y-111770998D01*
X131550031Y-111775409D01*
X131604600Y-111781000D01*
X132427906Y-111781000D01*
X132496027Y-111801002D01*
X132517001Y-111817905D01*
X137931343Y-117232247D01*
X137938887Y-117240537D01*
X137943000Y-117247018D01*
X137948777Y-117252443D01*
X137992667Y-117293658D01*
X137995509Y-117296413D01*
X138015230Y-117316134D01*
X138018425Y-117318612D01*
X138027447Y-117326318D01*
X138059679Y-117356586D01*
X138066628Y-117360406D01*
X138077432Y-117366346D01*
X138093956Y-117377199D01*
X138109959Y-117389613D01*
X138150543Y-117407176D01*
X138161173Y-117412383D01*
X138199940Y-117433695D01*
X138207617Y-117435666D01*
X138207622Y-117435668D01*
X138219558Y-117438732D01*
X138238266Y-117445137D01*
X138256855Y-117453181D01*
X138264683Y-117454421D01*
X138264690Y-117454423D01*
X138300524Y-117460099D01*
X138312144Y-117462505D01*
X138347289Y-117471528D01*
X138354970Y-117473500D01*
X138375224Y-117473500D01*
X138394934Y-117475051D01*
X138414943Y-117478220D01*
X138422835Y-117477474D01*
X138458961Y-117474059D01*
X138470819Y-117473500D01*
X144845803Y-117473500D01*
X144913924Y-117493502D01*
X144960417Y-117547158D01*
X144965326Y-117559623D01*
X144983450Y-117613946D01*
X145076522Y-117764348D01*
X145201697Y-117889305D01*
X145207927Y-117893145D01*
X145207928Y-117893146D01*
X145345090Y-117977694D01*
X145352262Y-117982115D01*
X145432005Y-118008564D01*
X145513611Y-118035632D01*
X145513613Y-118035632D01*
X145520139Y-118037797D01*
X145526975Y-118038497D01*
X145526978Y-118038498D01*
X145570031Y-118042909D01*
X145624600Y-118048500D01*
X146425400Y-118048500D01*
X146428646Y-118048163D01*
X146428650Y-118048163D01*
X146524308Y-118038238D01*
X146524312Y-118038237D01*
X146531166Y-118037526D01*
X146537702Y-118035345D01*
X146537704Y-118035345D01*
X146669806Y-117991272D01*
X146698946Y-117981550D01*
X146849348Y-117888478D01*
X146935784Y-117801891D01*
X146998066Y-117767812D01*
X147068886Y-117772815D01*
X147113976Y-117801736D01*
X147201697Y-117889305D01*
X147207927Y-117893145D01*
X147207928Y-117893146D01*
X147345090Y-117977694D01*
X147352262Y-117982115D01*
X147432005Y-118008564D01*
X147513611Y-118035632D01*
X147513613Y-118035632D01*
X147520139Y-118037797D01*
X147526975Y-118038497D01*
X147526978Y-118038498D01*
X147570031Y-118042909D01*
X147624600Y-118048500D01*
X148425400Y-118048500D01*
X148428646Y-118048163D01*
X148428650Y-118048163D01*
X148524308Y-118038238D01*
X148524312Y-118038237D01*
X148531166Y-118037526D01*
X148537702Y-118035345D01*
X148537704Y-118035345D01*
X148669806Y-117991272D01*
X148698946Y-117981550D01*
X148849348Y-117888478D01*
X148974305Y-117763303D01*
X149067115Y-117612738D01*
X149106664Y-117493502D01*
X149120632Y-117451389D01*
X149120632Y-117451387D01*
X149122797Y-117444861D01*
X149124333Y-117429876D01*
X149128956Y-117384753D01*
X149133500Y-117340400D01*
X149133500Y-116974594D01*
X149153502Y-116906473D01*
X149170405Y-116885499D01*
X154690500Y-111365405D01*
X154752812Y-111331379D01*
X154779595Y-111328500D01*
X155440400Y-111328500D01*
X155443646Y-111328163D01*
X155443650Y-111328163D01*
X155539308Y-111318238D01*
X155539312Y-111318237D01*
X155546166Y-111317526D01*
X155552702Y-111315345D01*
X155552704Y-111315345D01*
X155706998Y-111263868D01*
X155713946Y-111261550D01*
X155864348Y-111168478D01*
X155989305Y-111043303D01*
X156082115Y-110892738D01*
X156109724Y-110809500D01*
X156135632Y-110731389D01*
X156135632Y-110731387D01*
X156137797Y-110724861D01*
X156148500Y-110620400D01*
X156148500Y-109819600D01*
X156145087Y-109786704D01*
X156138238Y-109720692D01*
X156138237Y-109720688D01*
X156137526Y-109713834D01*
X156081550Y-109546054D01*
X155988478Y-109395652D01*
X155901891Y-109309216D01*
X155867812Y-109246934D01*
X155872815Y-109176114D01*
X155901736Y-109131025D01*
X155984134Y-109048483D01*
X155989305Y-109043303D01*
X155993146Y-109037072D01*
X156078275Y-108898968D01*
X156078276Y-108898966D01*
X156082115Y-108892738D01*
X156132643Y-108740401D01*
X156135632Y-108731389D01*
X156135632Y-108731387D01*
X156137797Y-108724861D01*
X156138761Y-108715458D01*
X156144397Y-108660448D01*
X156148500Y-108620400D01*
X156148500Y-107819600D01*
X156137526Y-107713834D01*
X156081550Y-107546054D01*
X155988478Y-107395652D01*
X155863303Y-107270695D01*
X155857072Y-107266854D01*
X155718968Y-107181725D01*
X155718966Y-107181724D01*
X155712738Y-107177885D01*
X155552254Y-107124655D01*
X155551389Y-107124368D01*
X155551387Y-107124368D01*
X155544861Y-107122203D01*
X155538025Y-107121503D01*
X155538022Y-107121502D01*
X155494969Y-107117091D01*
X155440400Y-107111500D01*
X154439600Y-107111500D01*
X154436354Y-107111837D01*
X154436350Y-107111837D01*
X154340692Y-107121762D01*
X154340688Y-107121763D01*
X154333834Y-107122474D01*
X154327298Y-107124655D01*
X154327296Y-107124655D01*
X154195194Y-107168728D01*
X154166054Y-107178450D01*
X154015652Y-107271522D01*
X153890695Y-107396697D01*
X153797885Y-107547262D01*
X153742203Y-107715139D01*
X153731500Y-107819600D01*
X153731500Y-108460500D01*
X153711498Y-108528621D01*
X153657842Y-108575114D01*
X153605500Y-108586500D01*
X153108200Y-108586500D01*
X153040079Y-108566498D01*
X153020853Y-108550157D01*
X153020580Y-108550460D01*
X153015668Y-108546037D01*
X153011253Y-108541134D01*
X152972313Y-108512842D01*
X152862094Y-108432763D01*
X152862093Y-108432762D01*
X152856752Y-108428882D01*
X152850724Y-108426198D01*
X152850722Y-108426197D01*
X152688319Y-108353891D01*
X152688318Y-108353891D01*
X152682288Y-108351206D01*
X152588888Y-108331353D01*
X152501944Y-108312872D01*
X152501939Y-108312872D01*
X152495487Y-108311500D01*
X152304513Y-108311500D01*
X152298061Y-108312872D01*
X152298056Y-108312872D01*
X152211112Y-108331353D01*
X152117712Y-108351206D01*
X152111682Y-108353891D01*
X152111681Y-108353891D01*
X151949278Y-108426197D01*
X151949276Y-108426198D01*
X151943248Y-108428882D01*
X151937907Y-108432762D01*
X151937906Y-108432763D01*
X151827687Y-108512842D01*
X151788747Y-108541134D01*
X151784332Y-108546037D01*
X151779420Y-108550460D01*
X151778295Y-108549211D01*
X151724986Y-108582051D01*
X151691800Y-108586500D01*
X150146450Y-108586500D01*
X150078329Y-108566498D01*
X150031836Y-108512842D01*
X150021123Y-108473503D01*
X150018238Y-108445694D01*
X150018237Y-108445691D01*
X150017526Y-108438835D01*
X150014206Y-108428882D01*
X149963868Y-108278003D01*
X149961550Y-108271055D01*
X149868478Y-108120652D01*
X149743303Y-107995695D01*
X149737072Y-107991854D01*
X149598968Y-107906725D01*
X149598966Y-107906724D01*
X149592738Y-107902885D01*
X149493185Y-107869865D01*
X149431389Y-107849368D01*
X149431387Y-107849368D01*
X149424861Y-107847203D01*
X149418025Y-107846503D01*
X149418022Y-107846502D01*
X149374969Y-107842091D01*
X149320400Y-107836500D01*
X148294600Y-107836500D01*
X148291354Y-107836837D01*
X148291350Y-107836837D01*
X148195693Y-107846762D01*
X148195689Y-107846763D01*
X148188835Y-107847474D01*
X148182299Y-107849655D01*
X148182297Y-107849655D01*
X148050195Y-107893728D01*
X148021055Y-107903450D01*
X147870652Y-107996522D01*
X147745695Y-108121697D01*
X147652885Y-108272262D01*
X147597203Y-108440139D01*
X147596503Y-108446975D01*
X147596502Y-108446978D01*
X147593502Y-108476257D01*
X147586500Y-108544600D01*
X147586500Y-109895400D01*
X147586837Y-109898646D01*
X147586837Y-109898650D01*
X147593894Y-109966658D01*
X147597474Y-110001165D01*
X147599655Y-110007701D01*
X147599655Y-110007703D01*
X147601690Y-110013803D01*
X147653450Y-110168945D01*
X147746522Y-110319348D01*
X147871697Y-110444305D01*
X147877927Y-110448145D01*
X147877928Y-110448146D01*
X148015090Y-110532694D01*
X148022262Y-110537115D01*
X148102005Y-110563564D01*
X148183611Y-110590632D01*
X148183613Y-110590632D01*
X148190139Y-110592797D01*
X148196975Y-110593497D01*
X148196978Y-110593498D01*
X148240031Y-110597909D01*
X148294600Y-110603500D01*
X149320400Y-110603500D01*
X149323646Y-110603163D01*
X149323650Y-110603163D01*
X149419307Y-110593238D01*
X149419311Y-110593237D01*
X149426165Y-110592526D01*
X149432701Y-110590345D01*
X149432703Y-110590345D01*
X149564805Y-110546272D01*
X149593945Y-110536550D01*
X149744348Y-110443478D01*
X149869305Y-110318303D01*
X149922517Y-110231978D01*
X149958275Y-110173968D01*
X149958276Y-110173966D01*
X149962115Y-110167738D01*
X149998758Y-110057262D01*
X150015632Y-110006389D01*
X150015632Y-110006387D01*
X150017797Y-109999861D01*
X150018918Y-109988925D01*
X150021199Y-109966658D01*
X150048040Y-109900930D01*
X150106155Y-109860148D01*
X150146543Y-109853500D01*
X151691800Y-109853500D01*
X151759921Y-109873502D01*
X151779147Y-109889843D01*
X151779420Y-109889540D01*
X151784332Y-109893963D01*
X151788747Y-109898866D01*
X151794086Y-109902745D01*
X151920110Y-109994307D01*
X151943248Y-110011118D01*
X151949276Y-110013802D01*
X151949278Y-110013803D01*
X152111681Y-110086109D01*
X152117712Y-110088794D01*
X152211113Y-110108647D01*
X152298056Y-110127128D01*
X152298061Y-110127128D01*
X152304513Y-110128500D01*
X152495487Y-110128500D01*
X152501939Y-110127128D01*
X152501944Y-110127128D01*
X152588887Y-110108647D01*
X152682288Y-110088794D01*
X152688319Y-110086109D01*
X152850722Y-110013803D01*
X152850724Y-110013802D01*
X152856752Y-110011118D01*
X152879891Y-109994307D01*
X153005914Y-109902745D01*
X153011253Y-109898866D01*
X153015668Y-109893963D01*
X153020580Y-109889540D01*
X153021705Y-109890789D01*
X153075014Y-109857949D01*
X153108200Y-109853500D01*
X153605500Y-109853500D01*
X153673621Y-109873502D01*
X153720114Y-109927158D01*
X153731500Y-109979500D01*
X153731500Y-110480406D01*
X153711498Y-110548527D01*
X153694595Y-110569501D01*
X148653490Y-115610605D01*
X148591178Y-115644631D01*
X148537978Y-115644710D01*
X148536399Y-115644371D01*
X148529861Y-115642203D01*
X148425400Y-115631500D01*
X147624600Y-115631500D01*
X147621354Y-115631837D01*
X147621350Y-115631837D01*
X147525692Y-115641762D01*
X147525688Y-115641763D01*
X147518834Y-115642474D01*
X147512298Y-115644655D01*
X147512296Y-115644655D01*
X147380194Y-115688728D01*
X147351054Y-115698450D01*
X147200652Y-115791522D01*
X147195479Y-115796704D01*
X147114216Y-115878109D01*
X147051934Y-115912188D01*
X146981114Y-115907185D01*
X146936025Y-115878264D01*
X146853483Y-115795866D01*
X146848303Y-115790695D01*
X146842072Y-115786854D01*
X146703968Y-115701725D01*
X146703966Y-115701724D01*
X146697738Y-115697885D01*
X146598969Y-115665125D01*
X146536389Y-115644368D01*
X146536387Y-115644368D01*
X146529861Y-115642203D01*
X146523025Y-115641503D01*
X146523022Y-115641502D01*
X146479969Y-115637091D01*
X146425400Y-115631500D01*
X145624600Y-115631500D01*
X145621354Y-115631837D01*
X145621350Y-115631837D01*
X145525692Y-115641762D01*
X145525688Y-115641763D01*
X145518834Y-115642474D01*
X145512298Y-115644655D01*
X145512296Y-115644655D01*
X145380194Y-115688728D01*
X145351054Y-115698450D01*
X145200652Y-115791522D01*
X145075695Y-115916697D01*
X144982885Y-116067262D01*
X144965337Y-116120168D01*
X144924906Y-116178527D01*
X144859342Y-116205764D01*
X144845744Y-116206500D01*
X138749595Y-116206500D01*
X138681474Y-116186498D01*
X138660500Y-116169595D01*
X133300405Y-110809500D01*
X133266379Y-110747188D01*
X133263500Y-110720405D01*
X133263500Y-109897100D01*
X133258899Y-109852753D01*
X133253238Y-109798192D01*
X133253237Y-109798188D01*
X133252526Y-109791334D01*
X133249253Y-109781522D01*
X133198868Y-109630502D01*
X133196550Y-109623554D01*
X133103478Y-109473152D01*
X132978303Y-109348195D01*
X132915068Y-109309216D01*
X132833968Y-109259225D01*
X132833966Y-109259224D01*
X132827738Y-109255385D01*
X132667254Y-109202155D01*
X132666389Y-109201868D01*
X132666387Y-109201868D01*
X132659861Y-109199703D01*
X132653025Y-109199003D01*
X132653022Y-109199002D01*
X132609969Y-109194591D01*
X132555400Y-109189000D01*
X131604600Y-109189000D01*
X131601354Y-109189337D01*
X131601350Y-109189337D01*
X131505692Y-109199262D01*
X131505688Y-109199263D01*
X131498834Y-109199974D01*
X131492298Y-109202155D01*
X131492296Y-109202155D01*
X131438782Y-109220009D01*
X131331054Y-109255950D01*
X131180652Y-109349022D01*
X131055695Y-109474197D01*
X131051855Y-109480427D01*
X131051854Y-109480428D01*
X131007119Y-109553002D01*
X130962885Y-109624762D01*
X130960581Y-109631709D01*
X130912169Y-109777668D01*
X130907203Y-109792639D01*
X130906503Y-109799475D01*
X130906502Y-109799478D01*
X130904106Y-109822866D01*
X130896500Y-109897100D01*
X130896500Y-111072900D01*
X127000000Y-111072900D01*
X127000000Y-108194595D01*
X130897001Y-108194595D01*
X130897338Y-108201114D01*
X130907257Y-108296706D01*
X130910149Y-108310100D01*
X130961588Y-108464284D01*
X130967761Y-108477462D01*
X131053063Y-108615307D01*
X131062099Y-108626708D01*
X131176829Y-108741239D01*
X131188240Y-108750251D01*
X131326243Y-108835316D01*
X131339424Y-108841463D01*
X131493710Y-108892638D01*
X131507086Y-108895505D01*
X131601438Y-108905172D01*
X131607854Y-108905500D01*
X131807885Y-108905500D01*
X131823124Y-108901025D01*
X131824329Y-108899635D01*
X131826000Y-108891952D01*
X131826000Y-108887384D01*
X132334000Y-108887384D01*
X132338475Y-108902623D01*
X132339865Y-108903828D01*
X132347548Y-108905499D01*
X132552095Y-108905499D01*
X132558614Y-108905162D01*
X132654206Y-108895243D01*
X132667600Y-108892351D01*
X132821784Y-108840912D01*
X132834962Y-108834739D01*
X132972807Y-108749437D01*
X132984208Y-108740401D01*
X133098739Y-108625671D01*
X133107751Y-108614260D01*
X133192816Y-108476257D01*
X133198963Y-108463076D01*
X133250138Y-108308790D01*
X133253005Y-108295414D01*
X133262672Y-108201062D01*
X133263000Y-108194646D01*
X133263000Y-107882115D01*
X133258525Y-107866876D01*
X133257135Y-107865671D01*
X133249452Y-107864000D01*
X132352115Y-107864000D01*
X132336876Y-107868475D01*
X132335671Y-107869865D01*
X132334000Y-107877548D01*
X132334000Y-108887384D01*
X131826000Y-108887384D01*
X131826000Y-107882115D01*
X131821525Y-107866876D01*
X131820135Y-107865671D01*
X131812452Y-107864000D01*
X130915116Y-107864000D01*
X130899877Y-107868475D01*
X130898672Y-107869865D01*
X130897001Y-107877548D01*
X130897001Y-108194595D01*
X127000000Y-108194595D01*
X127000000Y-107337885D01*
X130897000Y-107337885D01*
X130901475Y-107353124D01*
X130902865Y-107354329D01*
X130910548Y-107356000D01*
X131807885Y-107356000D01*
X131823124Y-107351525D01*
X131824329Y-107350135D01*
X131826000Y-107342452D01*
X131826000Y-107337885D01*
X132334000Y-107337885D01*
X132338475Y-107353124D01*
X132339865Y-107354329D01*
X132347548Y-107356000D01*
X133244884Y-107356000D01*
X133260123Y-107351525D01*
X133261328Y-107350135D01*
X133262999Y-107342452D01*
X133262999Y-107025405D01*
X133262662Y-107018886D01*
X133252743Y-106923294D01*
X133249851Y-106909900D01*
X133198412Y-106755716D01*
X133192239Y-106742538D01*
X133106937Y-106604693D01*
X133097901Y-106593292D01*
X132983171Y-106478761D01*
X132971760Y-106469749D01*
X132833757Y-106384684D01*
X132820576Y-106378537D01*
X132666290Y-106327362D01*
X132652914Y-106324495D01*
X132558562Y-106314828D01*
X132552145Y-106314500D01*
X132352115Y-106314500D01*
X132336876Y-106318975D01*
X132335671Y-106320365D01*
X132334000Y-106328048D01*
X132334000Y-107337885D01*
X131826000Y-107337885D01*
X131826000Y-106332616D01*
X131821525Y-106317377D01*
X131820135Y-106316172D01*
X131812452Y-106314501D01*
X131607905Y-106314501D01*
X131601386Y-106314838D01*
X131505794Y-106324757D01*
X131492400Y-106327649D01*
X131338216Y-106379088D01*
X131325038Y-106385261D01*
X131187193Y-106470563D01*
X131175792Y-106479599D01*
X131061261Y-106594329D01*
X131052249Y-106605740D01*
X130967184Y-106743743D01*
X130961037Y-106756924D01*
X130909862Y-106911210D01*
X130906995Y-106924586D01*
X130897328Y-107018938D01*
X130897000Y-107025355D01*
X130897000Y-107337885D01*
X127000000Y-107337885D01*
X127000000Y-105860400D01*
X136578564Y-105860400D01*
X136589538Y-105966166D01*
X136645514Y-106133946D01*
X136738586Y-106284348D01*
X136863761Y-106409305D01*
X136869991Y-106413145D01*
X136869992Y-106413146D01*
X137007154Y-106497694D01*
X137014326Y-106502115D01*
X137094069Y-106528564D01*
X137175675Y-106555632D01*
X137175677Y-106555632D01*
X137182203Y-106557797D01*
X137189039Y-106558497D01*
X137189042Y-106558498D01*
X137232095Y-106562909D01*
X137286664Y-106568500D01*
X138087464Y-106568500D01*
X138090710Y-106568163D01*
X138090714Y-106568163D01*
X138186372Y-106558238D01*
X138186376Y-106558237D01*
X138193230Y-106557526D01*
X138199766Y-106555345D01*
X138199768Y-106555345D01*
X138331870Y-106511272D01*
X138361010Y-106501550D01*
X138511412Y-106408478D01*
X138597848Y-106321891D01*
X138660130Y-106287812D01*
X138730950Y-106292815D01*
X138776039Y-106321736D01*
X138782362Y-106328048D01*
X138863761Y-106409305D01*
X138869991Y-106413145D01*
X138869992Y-106413146D01*
X138993680Y-106489389D01*
X139041174Y-106542162D01*
X139053564Y-106596649D01*
X139053564Y-109505534D01*
X139033562Y-109573655D01*
X138979906Y-109620148D01*
X138940571Y-109630861D01*
X138939134Y-109631010D01*
X138925026Y-109632474D01*
X138918490Y-109634655D01*
X138918488Y-109634655D01*
X138786386Y-109678728D01*
X138757246Y-109688450D01*
X138606844Y-109781522D01*
X138481887Y-109906697D01*
X138478047Y-109912927D01*
X138478046Y-109912928D01*
X138415866Y-110013803D01*
X138389077Y-110057262D01*
X138386773Y-110064209D01*
X138350368Y-110173968D01*
X138333395Y-110225139D01*
X138322692Y-110329600D01*
X138322692Y-111330400D01*
X138333666Y-111436166D01*
X138389642Y-111603946D01*
X138482714Y-111754348D01*
X138607889Y-111879305D01*
X138614119Y-111883145D01*
X138614120Y-111883146D01*
X138751282Y-111967694D01*
X138758454Y-111972115D01*
X138838197Y-111998564D01*
X138919803Y-112025632D01*
X138919805Y-112025632D01*
X138926331Y-112027797D01*
X138933167Y-112028497D01*
X138933170Y-112028498D01*
X138976223Y-112032909D01*
X139030792Y-112038500D01*
X139831592Y-112038500D01*
X139834838Y-112038163D01*
X139834842Y-112038163D01*
X139930500Y-112028238D01*
X139930504Y-112028237D01*
X139937358Y-112027526D01*
X139943894Y-112025345D01*
X139943896Y-112025345D01*
X140075998Y-111981272D01*
X140105138Y-111971550D01*
X140255540Y-111878478D01*
X140341976Y-111791891D01*
X140404258Y-111757812D01*
X140475078Y-111762815D01*
X140520168Y-111791736D01*
X140607889Y-111879305D01*
X140614119Y-111883145D01*
X140614120Y-111883146D01*
X140751282Y-111967694D01*
X140758454Y-111972115D01*
X140838197Y-111998564D01*
X140919803Y-112025632D01*
X140919805Y-112025632D01*
X140926331Y-112027797D01*
X140933167Y-112028497D01*
X140933170Y-112028498D01*
X140976223Y-112032909D01*
X141030792Y-112038500D01*
X141831592Y-112038500D01*
X141834838Y-112038163D01*
X141834842Y-112038163D01*
X141930500Y-112028238D01*
X141930504Y-112028237D01*
X141937358Y-112027526D01*
X141943894Y-112025345D01*
X141943896Y-112025345D01*
X142075998Y-111981272D01*
X142105138Y-111971550D01*
X142255540Y-111878478D01*
X142380497Y-111753303D01*
X142461554Y-111621805D01*
X142469467Y-111608968D01*
X142469468Y-111608966D01*
X142473307Y-111602738D01*
X142528989Y-111434861D01*
X142539692Y-111330400D01*
X142539692Y-110669595D01*
X142559694Y-110601474D01*
X142576597Y-110580499D01*
X143266693Y-109890404D01*
X143329005Y-109856379D01*
X143355788Y-109853500D01*
X144493550Y-109853500D01*
X144561671Y-109873502D01*
X144608164Y-109927158D01*
X144618877Y-109966496D01*
X144622474Y-110001165D01*
X144624655Y-110007701D01*
X144624655Y-110007703D01*
X144626690Y-110013803D01*
X144678450Y-110168945D01*
X144771522Y-110319348D01*
X144896697Y-110444305D01*
X144902927Y-110448145D01*
X144902928Y-110448146D01*
X145040090Y-110532694D01*
X145047262Y-110537115D01*
X145127005Y-110563564D01*
X145208611Y-110590632D01*
X145208613Y-110590632D01*
X145215139Y-110592797D01*
X145221975Y-110593497D01*
X145221978Y-110593498D01*
X145265031Y-110597909D01*
X145319600Y-110603500D01*
X146345400Y-110603500D01*
X146348646Y-110603163D01*
X146348650Y-110603163D01*
X146444307Y-110593238D01*
X146444311Y-110593237D01*
X146451165Y-110592526D01*
X146457701Y-110590345D01*
X146457703Y-110590345D01*
X146589805Y-110546272D01*
X146618945Y-110536550D01*
X146769348Y-110443478D01*
X146894305Y-110318303D01*
X146947517Y-110231978D01*
X146983275Y-110173968D01*
X146983276Y-110173966D01*
X146987115Y-110167738D01*
X147023758Y-110057262D01*
X147040632Y-110006389D01*
X147040632Y-110006387D01*
X147042797Y-109999861D01*
X147043918Y-109988925D01*
X147051704Y-109912928D01*
X147053500Y-109895400D01*
X147053500Y-108544600D01*
X147053163Y-108541350D01*
X147043238Y-108445693D01*
X147043237Y-108445689D01*
X147042526Y-108438835D01*
X147039206Y-108428882D01*
X146988868Y-108278003D01*
X146986550Y-108271055D01*
X146893478Y-108120652D01*
X146768303Y-107995695D01*
X146762072Y-107991854D01*
X146623968Y-107906725D01*
X146623966Y-107906724D01*
X146617738Y-107902885D01*
X146518185Y-107869865D01*
X146456389Y-107849368D01*
X146456387Y-107849368D01*
X146449861Y-107847203D01*
X146443025Y-107846503D01*
X146443022Y-107846502D01*
X146399969Y-107842091D01*
X146345400Y-107836500D01*
X145319600Y-107836500D01*
X145316354Y-107836837D01*
X145316350Y-107836837D01*
X145220693Y-107846762D01*
X145220689Y-107846763D01*
X145213835Y-107847474D01*
X145207299Y-107849655D01*
X145207297Y-107849655D01*
X145075195Y-107893728D01*
X145046055Y-107903450D01*
X144895652Y-107996522D01*
X144770695Y-108121697D01*
X144677885Y-108272262D01*
X144622203Y-108440139D01*
X144621502Y-108446977D01*
X144621502Y-108446979D01*
X144618801Y-108473342D01*
X144591960Y-108539070D01*
X144533845Y-108579852D01*
X144493457Y-108586500D01*
X143119959Y-108586500D01*
X143108776Y-108585973D01*
X143101283Y-108584298D01*
X143093357Y-108584547D01*
X143093356Y-108584547D01*
X143033193Y-108586438D01*
X143029235Y-108586500D01*
X143001336Y-108586500D01*
X142997346Y-108587004D01*
X142985512Y-108587936D01*
X142941303Y-108589326D01*
X142933689Y-108591538D01*
X142933684Y-108591539D01*
X142921851Y-108594977D01*
X142902488Y-108598988D01*
X142882395Y-108601526D01*
X142875028Y-108604443D01*
X142875023Y-108604444D01*
X142841284Y-108617802D01*
X142830057Y-108621646D01*
X142787599Y-108633982D01*
X142780773Y-108638019D01*
X142770164Y-108644293D01*
X142752416Y-108652988D01*
X142733575Y-108660448D01*
X142727159Y-108665110D01*
X142727158Y-108665110D01*
X142697805Y-108686436D01*
X142687885Y-108692952D01*
X142656657Y-108711420D01*
X142656654Y-108711422D01*
X142649830Y-108715458D01*
X142635509Y-108729779D01*
X142620476Y-108742619D01*
X142604085Y-108754528D01*
X142599035Y-108760632D01*
X142599030Y-108760637D01*
X142575899Y-108788598D01*
X142567909Y-108797379D01*
X141780691Y-109584596D01*
X141718379Y-109618621D01*
X141691596Y-109621500D01*
X141030792Y-109621500D01*
X141027546Y-109621837D01*
X141027542Y-109621837D01*
X140931884Y-109631762D01*
X140931880Y-109631763D01*
X140925026Y-109632474D01*
X140918490Y-109634655D01*
X140918488Y-109634655D01*
X140786386Y-109678728D01*
X140757246Y-109688450D01*
X140606844Y-109781522D01*
X140601671Y-109786704D01*
X140535737Y-109852753D01*
X140473454Y-109886832D01*
X140402634Y-109881829D01*
X140345762Y-109839332D01*
X140320893Y-109772833D01*
X140320564Y-109763735D01*
X140320564Y-106596781D01*
X140340566Y-106528660D01*
X140380261Y-106489637D01*
X140505184Y-106412332D01*
X140511412Y-106408478D01*
X140636369Y-106283303D01*
X140729179Y-106132738D01*
X140784861Y-105964861D01*
X140795564Y-105860400D01*
X140795564Y-105199594D01*
X140815566Y-105131473D01*
X140832469Y-105110499D01*
X143838857Y-102104112D01*
X143901169Y-102070086D01*
X143971985Y-102075151D01*
X144028820Y-102117698D01*
X144037071Y-102130207D01*
X144040960Y-102136944D01*
X144045378Y-102141851D01*
X144045379Y-102141852D01*
X144127452Y-102233003D01*
X144168747Y-102278866D01*
X144323248Y-102391118D01*
X144329276Y-102393802D01*
X144329278Y-102393803D01*
X144491681Y-102466109D01*
X144497712Y-102468794D01*
X144591113Y-102488647D01*
X144678056Y-102507128D01*
X144678061Y-102507128D01*
X144684513Y-102508500D01*
X144875487Y-102508500D01*
X144881939Y-102507128D01*
X144881944Y-102507128D01*
X144968888Y-102488647D01*
X145062288Y-102468794D01*
X145068319Y-102466109D01*
X145230722Y-102393803D01*
X145230724Y-102393802D01*
X145236752Y-102391118D01*
X145391253Y-102278866D01*
X145395668Y-102273963D01*
X145400580Y-102269540D01*
X145401705Y-102270789D01*
X145455014Y-102237949D01*
X145488200Y-102233500D01*
X146671233Y-102233500D01*
X146682416Y-102234027D01*
X146689909Y-102235702D01*
X146697835Y-102235453D01*
X146697836Y-102235453D01*
X146757986Y-102233562D01*
X146761945Y-102233500D01*
X146789856Y-102233500D01*
X146793791Y-102233003D01*
X146793856Y-102232995D01*
X146805693Y-102232062D01*
X146837951Y-102231048D01*
X146841970Y-102230922D01*
X146849889Y-102230673D01*
X146869343Y-102225021D01*
X146888700Y-102221013D01*
X146900930Y-102219468D01*
X146900931Y-102219468D01*
X146908797Y-102218474D01*
X146916168Y-102215555D01*
X146916170Y-102215555D01*
X146949912Y-102202196D01*
X146961142Y-102198351D01*
X146995983Y-102188229D01*
X146995984Y-102188229D01*
X147003593Y-102186018D01*
X147010412Y-102181985D01*
X147010417Y-102181983D01*
X147021028Y-102175707D01*
X147038776Y-102167012D01*
X147057617Y-102159552D01*
X147093387Y-102133564D01*
X147103307Y-102127048D01*
X147134535Y-102108580D01*
X147134538Y-102108578D01*
X147141362Y-102104542D01*
X147155683Y-102090221D01*
X147170717Y-102077380D01*
X147180694Y-102070131D01*
X147187107Y-102065472D01*
X147215298Y-102031395D01*
X147223288Y-102022616D01*
X147435499Y-101810405D01*
X147497811Y-101776379D01*
X147524594Y-101773500D01*
X148276502Y-101773500D01*
X148278950Y-101773307D01*
X148278958Y-101773307D01*
X148307421Y-101771067D01*
X148307426Y-101771066D01*
X148313831Y-101770562D01*
X148413769Y-101741528D01*
X148465988Y-101726357D01*
X148465990Y-101726356D01*
X148473601Y-101724145D01*
X148518327Y-101697694D01*
X148609980Y-101643491D01*
X148609983Y-101643489D01*
X148616807Y-101639453D01*
X148734453Y-101521807D01*
X148738489Y-101514983D01*
X148738491Y-101514980D01*
X148811323Y-101391827D01*
X148819145Y-101378601D01*
X148865562Y-101218831D01*
X148868255Y-101184614D01*
X148893541Y-101118273D01*
X148950679Y-101076133D01*
X148993867Y-101068500D01*
X150726133Y-101068500D01*
X150794254Y-101088502D01*
X150840747Y-101142158D01*
X150851745Y-101184614D01*
X150854438Y-101218831D01*
X150900855Y-101378601D01*
X150908677Y-101391827D01*
X150981509Y-101514980D01*
X150981511Y-101514983D01*
X150985547Y-101521807D01*
X151103193Y-101639453D01*
X151110017Y-101643489D01*
X151110020Y-101643491D01*
X151201673Y-101697694D01*
X151246399Y-101724145D01*
X151254010Y-101726356D01*
X151254012Y-101726357D01*
X151306231Y-101741528D01*
X151406169Y-101770562D01*
X151412574Y-101771066D01*
X151412579Y-101771067D01*
X151441042Y-101773307D01*
X151441050Y-101773307D01*
X151443498Y-101773500D01*
X153226502Y-101773500D01*
X153228950Y-101773307D01*
X153228958Y-101773307D01*
X153257421Y-101771067D01*
X153257426Y-101771066D01*
X153263831Y-101770562D01*
X153363769Y-101741528D01*
X153415988Y-101726357D01*
X153415990Y-101726356D01*
X153423601Y-101724145D01*
X153468327Y-101697694D01*
X153559980Y-101643491D01*
X153559983Y-101643489D01*
X153566807Y-101639453D01*
X153572416Y-101633844D01*
X153578675Y-101628989D01*
X153579844Y-101630496D01*
X153633167Y-101601379D01*
X153659950Y-101598500D01*
X166693733Y-101598500D01*
X166704916Y-101599027D01*
X166712409Y-101600702D01*
X166720335Y-101600453D01*
X166720336Y-101600453D01*
X166780486Y-101598562D01*
X166784445Y-101598500D01*
X166812356Y-101598500D01*
X166816291Y-101598003D01*
X166816356Y-101597995D01*
X166828193Y-101597062D01*
X166860451Y-101596048D01*
X166864470Y-101595922D01*
X166872389Y-101595673D01*
X166891843Y-101590021D01*
X166911200Y-101586013D01*
X166923430Y-101584468D01*
X166923431Y-101584468D01*
X166931297Y-101583474D01*
X166938668Y-101580555D01*
X166938670Y-101580555D01*
X166972412Y-101567196D01*
X166983642Y-101563351D01*
X167018483Y-101553229D01*
X167018484Y-101553229D01*
X167026093Y-101551018D01*
X167032912Y-101546985D01*
X167032917Y-101546983D01*
X167043528Y-101540707D01*
X167061276Y-101532012D01*
X167080117Y-101524552D01*
X167115887Y-101498564D01*
X167125807Y-101492048D01*
X167157035Y-101473580D01*
X167157038Y-101473578D01*
X167163862Y-101469542D01*
X167178183Y-101455221D01*
X167193217Y-101442380D01*
X167203194Y-101435131D01*
X167209607Y-101430472D01*
X167237798Y-101396395D01*
X167245788Y-101387616D01*
X167402999Y-101230405D01*
X167465311Y-101196379D01*
X167492094Y-101193500D01*
X168165400Y-101193500D01*
X168168646Y-101193163D01*
X168168650Y-101193163D01*
X168264308Y-101183238D01*
X168264312Y-101183237D01*
X168271166Y-101182526D01*
X168277702Y-101180345D01*
X168277704Y-101180345D01*
X168431998Y-101128868D01*
X168438946Y-101126550D01*
X168589348Y-101033478D01*
X168714305Y-100908303D01*
X168807115Y-100757738D01*
X168862797Y-100589861D01*
X168873500Y-100485400D01*
X168873500Y-99709600D01*
X168871830Y-99693500D01*
X168863238Y-99610692D01*
X168863237Y-99610688D01*
X168862526Y-99603834D01*
X168860228Y-99596944D01*
X168808868Y-99443002D01*
X168806550Y-99436054D01*
X168713478Y-99285652D01*
X168588303Y-99160695D01*
X168583765Y-99157898D01*
X168543176Y-99100647D01*
X168539946Y-99029724D01*
X168575572Y-98968313D01*
X168584068Y-98960938D01*
X168594207Y-98952902D01*
X168708739Y-98838171D01*
X168717751Y-98826760D01*
X168802816Y-98688757D01*
X168808963Y-98675576D01*
X168860138Y-98521290D01*
X168863005Y-98507914D01*
X168872672Y-98413562D01*
X168873000Y-98407146D01*
X168873000Y-98294615D01*
X168868525Y-98279376D01*
X168867135Y-98278171D01*
X168859452Y-98276500D01*
X166425116Y-98276500D01*
X166409877Y-98280975D01*
X166408672Y-98282365D01*
X166407001Y-98290048D01*
X166407001Y-98407095D01*
X166407338Y-98413614D01*
X166417257Y-98509206D01*
X166420149Y-98522600D01*
X166471588Y-98676784D01*
X166477761Y-98689962D01*
X166563063Y-98827807D01*
X166572099Y-98839208D01*
X166686828Y-98953738D01*
X166695762Y-98960794D01*
X166736823Y-99018712D01*
X166740053Y-99089635D01*
X166704426Y-99151046D01*
X166696593Y-99157846D01*
X166690652Y-99161522D01*
X166565695Y-99286697D01*
X166561855Y-99292927D01*
X166561854Y-99292928D01*
X166501660Y-99390581D01*
X166472885Y-99437262D01*
X166417203Y-99605139D01*
X166416503Y-99611975D01*
X166416502Y-99611978D01*
X166412091Y-99655031D01*
X166406500Y-99709600D01*
X166406500Y-100205500D01*
X166386498Y-100273621D01*
X166332842Y-100320114D01*
X166280500Y-100331500D01*
X153858224Y-100331500D01*
X153790103Y-100311498D01*
X153743610Y-100257842D01*
X153733506Y-100187568D01*
X153749769Y-100141364D01*
X153769145Y-100108601D01*
X153815562Y-99948831D01*
X153817034Y-99930139D01*
X153818307Y-99913958D01*
X153818307Y-99913950D01*
X153818500Y-99911502D01*
X153818500Y-99819500D01*
X153838502Y-99751379D01*
X153892158Y-99704886D01*
X153944500Y-99693500D01*
X156771800Y-99693500D01*
X156839921Y-99713502D01*
X156859147Y-99729843D01*
X156859420Y-99729540D01*
X156864332Y-99733963D01*
X156868747Y-99738866D01*
X156874094Y-99742751D01*
X157009808Y-99841353D01*
X157023248Y-99851118D01*
X157029276Y-99853802D01*
X157029278Y-99853803D01*
X157191681Y-99926109D01*
X157197712Y-99928794D01*
X157261822Y-99942421D01*
X157378056Y-99967128D01*
X157378061Y-99967128D01*
X157384513Y-99968500D01*
X157575487Y-99968500D01*
X157581939Y-99967128D01*
X157581944Y-99967128D01*
X157698178Y-99942421D01*
X157762288Y-99928794D01*
X157768319Y-99926109D01*
X157930722Y-99853803D01*
X157930724Y-99853802D01*
X157936752Y-99851118D01*
X157950193Y-99841353D01*
X157992158Y-99810863D01*
X158091253Y-99738866D01*
X158114091Y-99713502D01*
X158214621Y-99601852D01*
X158214622Y-99601851D01*
X158219040Y-99596944D01*
X158314527Y-99431556D01*
X158373542Y-99249928D01*
X158393504Y-99060000D01*
X158388480Y-99012203D01*
X158374232Y-98876635D01*
X158374232Y-98876633D01*
X158373542Y-98870072D01*
X158314527Y-98688444D01*
X158219040Y-98523056D01*
X158206570Y-98509206D01*
X158095675Y-98386045D01*
X158095674Y-98386044D01*
X158091253Y-98381134D01*
X157972170Y-98294615D01*
X157942094Y-98272763D01*
X157942093Y-98272762D01*
X157936752Y-98268882D01*
X157930724Y-98266198D01*
X157930722Y-98266197D01*
X157768319Y-98193891D01*
X157768318Y-98193891D01*
X157762288Y-98191206D01*
X157638962Y-98164992D01*
X157581944Y-98152872D01*
X157581939Y-98152872D01*
X157575487Y-98151500D01*
X157384513Y-98151500D01*
X157378061Y-98152872D01*
X157378056Y-98152872D01*
X157321038Y-98164992D01*
X157197712Y-98191206D01*
X157191682Y-98193891D01*
X157191681Y-98193891D01*
X157029278Y-98266197D01*
X157029276Y-98266198D01*
X157023248Y-98268882D01*
X157017907Y-98272762D01*
X157017906Y-98272763D01*
X156979730Y-98300500D01*
X156868747Y-98381134D01*
X156864332Y-98386037D01*
X156859420Y-98390460D01*
X156858295Y-98389211D01*
X156804986Y-98422051D01*
X156771800Y-98426500D01*
X153944500Y-98426500D01*
X153876379Y-98406498D01*
X153829886Y-98352842D01*
X153818500Y-98300500D01*
X153818500Y-98208498D01*
X153818307Y-98206042D01*
X153816067Y-98177579D01*
X153816066Y-98177574D01*
X153815562Y-98171169D01*
X153769145Y-98011399D01*
X153684453Y-97868193D01*
X153681771Y-97865511D01*
X153656498Y-97801139D01*
X153666632Y-97750385D01*
X166407000Y-97750385D01*
X166411475Y-97765624D01*
X166412865Y-97766829D01*
X166420548Y-97768500D01*
X167367885Y-97768500D01*
X167383124Y-97764025D01*
X167384329Y-97762635D01*
X167386000Y-97754952D01*
X167386000Y-97750385D01*
X167894000Y-97750385D01*
X167898475Y-97765624D01*
X167899865Y-97766829D01*
X167907548Y-97768500D01*
X168854884Y-97768500D01*
X168870123Y-97764025D01*
X168871328Y-97762635D01*
X168872999Y-97754952D01*
X168872999Y-97637905D01*
X168872662Y-97631386D01*
X168862743Y-97535794D01*
X168859851Y-97522400D01*
X168808412Y-97368216D01*
X168802239Y-97355038D01*
X168716937Y-97217193D01*
X168707901Y-97205792D01*
X168593171Y-97091261D01*
X168581760Y-97082249D01*
X168443757Y-96997184D01*
X168430576Y-96991037D01*
X168276290Y-96939862D01*
X168262914Y-96936995D01*
X168168562Y-96927328D01*
X168162145Y-96927000D01*
X167912115Y-96927000D01*
X167896876Y-96931475D01*
X167895671Y-96932865D01*
X167894000Y-96940548D01*
X167894000Y-97750385D01*
X167386000Y-97750385D01*
X167386000Y-96945116D01*
X167381525Y-96929877D01*
X167380135Y-96928672D01*
X167372452Y-96927001D01*
X167117905Y-96927001D01*
X167111386Y-96927338D01*
X167015794Y-96937257D01*
X167002400Y-96940149D01*
X166848216Y-96991588D01*
X166835038Y-96997761D01*
X166697193Y-97083063D01*
X166685792Y-97092099D01*
X166571261Y-97206829D01*
X166562249Y-97218240D01*
X166477184Y-97356243D01*
X166471037Y-97369424D01*
X166419862Y-97523710D01*
X166416995Y-97537086D01*
X166407328Y-97631438D01*
X166407000Y-97637855D01*
X166407000Y-97750385D01*
X153666632Y-97750385D01*
X153670400Y-97731516D01*
X153680572Y-97715688D01*
X153684453Y-97711807D01*
X153769145Y-97568601D01*
X153771415Y-97560790D01*
X153803693Y-97449684D01*
X153815562Y-97408831D01*
X153817351Y-97386109D01*
X153818307Y-97373958D01*
X153818307Y-97373950D01*
X153818500Y-97371502D01*
X153818500Y-97279500D01*
X153838502Y-97211379D01*
X153892158Y-97164886D01*
X153944500Y-97153500D01*
X154231800Y-97153500D01*
X154299921Y-97173502D01*
X154319147Y-97189843D01*
X154319420Y-97189540D01*
X154324332Y-97193963D01*
X154328747Y-97198866D01*
X154483248Y-97311118D01*
X154489276Y-97313802D01*
X154489278Y-97313803D01*
X154651681Y-97386109D01*
X154657712Y-97388794D01*
X154721822Y-97402421D01*
X154838056Y-97427128D01*
X154838061Y-97427128D01*
X154844513Y-97428500D01*
X155035487Y-97428500D01*
X155041939Y-97427128D01*
X155041944Y-97427128D01*
X155158178Y-97402421D01*
X155222288Y-97388794D01*
X155228319Y-97386109D01*
X155390722Y-97313803D01*
X155390724Y-97313802D01*
X155396752Y-97311118D01*
X155551253Y-97198866D01*
X155648141Y-97091261D01*
X155674621Y-97061852D01*
X155674622Y-97061851D01*
X155679040Y-97056944D01*
X155746472Y-96940149D01*
X155771223Y-96897279D01*
X155771224Y-96897278D01*
X155774527Y-96891556D01*
X155833542Y-96709928D01*
X155841860Y-96630792D01*
X155852814Y-96526565D01*
X155853504Y-96520000D01*
X155837225Y-96365116D01*
X155834232Y-96336635D01*
X155834232Y-96336633D01*
X155833542Y-96330072D01*
X155774527Y-96148444D01*
X155679040Y-95983056D01*
X155551253Y-95841134D01*
X155396752Y-95728882D01*
X155390724Y-95726198D01*
X155390722Y-95726197D01*
X155228319Y-95653891D01*
X155228318Y-95653891D01*
X155222288Y-95651206D01*
X155128888Y-95631353D01*
X155041944Y-95612872D01*
X155041939Y-95612872D01*
X155035487Y-95611500D01*
X154844513Y-95611500D01*
X154838061Y-95612872D01*
X154838056Y-95612872D01*
X154751112Y-95631353D01*
X154657712Y-95651206D01*
X154651682Y-95653891D01*
X154651681Y-95653891D01*
X154489278Y-95726197D01*
X154489276Y-95726198D01*
X154483248Y-95728882D01*
X154328747Y-95841134D01*
X154324332Y-95846037D01*
X154319420Y-95850460D01*
X154318295Y-95849211D01*
X154264986Y-95882051D01*
X154231800Y-95886500D01*
X153159500Y-95886500D01*
X153091379Y-95866498D01*
X153044886Y-95812842D01*
X153033500Y-95760500D01*
X153033500Y-92199500D01*
X153053502Y-92131379D01*
X153107158Y-92084886D01*
X153159500Y-92073500D01*
X157885500Y-92073500D01*
X157953621Y-92093502D01*
X158000114Y-92147158D01*
X158011500Y-92199500D01*
X158011500Y-92988134D01*
X158018255Y-93050316D01*
X158069385Y-93186705D01*
X158156739Y-93303261D01*
X158273295Y-93390615D01*
X158409684Y-93441745D01*
X158471866Y-93448500D01*
X161568134Y-93448500D01*
X161630316Y-93441745D01*
X161766705Y-93390615D01*
X161883261Y-93303261D01*
X161970615Y-93186705D01*
X162021745Y-93050316D01*
X162028500Y-92988134D01*
X162028500Y-89891866D01*
X162021745Y-89829684D01*
X161970615Y-89693295D01*
X161883261Y-89576739D01*
X161766705Y-89489385D01*
X161630316Y-89438255D01*
X161568134Y-89431500D01*
X158471866Y-89431500D01*
X158409684Y-89438255D01*
X158273295Y-89489385D01*
X158156739Y-89576739D01*
X158069385Y-89693295D01*
X158018255Y-89829684D01*
X158011500Y-89891866D01*
X158011500Y-90680500D01*
X157991498Y-90748621D01*
X157937842Y-90795114D01*
X157885500Y-90806500D01*
X152471793Y-90806500D01*
X152448184Y-90804268D01*
X152447881Y-90804210D01*
X152447877Y-90804210D01*
X152440094Y-90802725D01*
X152384049Y-90806251D01*
X152376138Y-90806500D01*
X152360144Y-90806500D01*
X152344270Y-90808506D01*
X152336410Y-90809248D01*
X152308951Y-90810976D01*
X152288263Y-90812277D01*
X152288262Y-90812277D01*
X152280350Y-90812775D01*
X152272809Y-90815225D01*
X152272513Y-90815321D01*
X152249369Y-90820494D01*
X152249065Y-90820532D01*
X152249060Y-90820533D01*
X152241203Y-90821526D01*
X152233838Y-90824442D01*
X152233834Y-90824443D01*
X152188989Y-90842199D01*
X152181570Y-90844871D01*
X152128125Y-90862236D01*
X152121429Y-90866486D01*
X152121428Y-90866486D01*
X152121169Y-90866650D01*
X152100042Y-90877415D01*
X152099754Y-90877529D01*
X152099749Y-90877532D01*
X152092383Y-90880448D01*
X152085975Y-90885104D01*
X152085969Y-90885107D01*
X152046948Y-90913458D01*
X152040411Y-90917901D01*
X151992982Y-90948000D01*
X151987556Y-90953778D01*
X151987555Y-90953779D01*
X151987341Y-90954007D01*
X151969554Y-90969688D01*
X151969309Y-90969866D01*
X151969307Y-90969868D01*
X151962893Y-90974528D01*
X151957839Y-90980637D01*
X151957838Y-90980638D01*
X151927097Y-91017796D01*
X151921866Y-91023730D01*
X151888842Y-91058898D01*
X151888840Y-91058901D01*
X151883414Y-91064679D01*
X151879445Y-91071899D01*
X151866119Y-91091506D01*
X151865920Y-91091746D01*
X151865916Y-91091753D01*
X151860867Y-91097856D01*
X151857493Y-91105027D01*
X151836953Y-91148676D01*
X151833371Y-91155708D01*
X151806305Y-91204940D01*
X151804335Y-91212615D01*
X151804332Y-91212621D01*
X151804256Y-91212919D01*
X151796224Y-91235228D01*
X151796094Y-91235503D01*
X151796091Y-91235511D01*
X151792717Y-91242682D01*
X151791231Y-91250474D01*
X151782195Y-91297843D01*
X151780471Y-91305558D01*
X151766500Y-91359970D01*
X151766500Y-91368207D01*
X151764268Y-91391816D01*
X151762725Y-91399906D01*
X151763223Y-91407817D01*
X151766251Y-91455951D01*
X151766500Y-91463862D01*
X151766500Y-96220500D01*
X151746498Y-96288621D01*
X151692842Y-96335114D01*
X151640500Y-96346500D01*
X151443498Y-96346500D01*
X151441050Y-96346693D01*
X151441042Y-96346693D01*
X151412579Y-96348933D01*
X151412574Y-96348934D01*
X151406169Y-96349438D01*
X151334998Y-96370115D01*
X151254012Y-96393643D01*
X151254010Y-96393644D01*
X151246399Y-96395855D01*
X151239572Y-96399892D01*
X151239573Y-96399892D01*
X151110020Y-96476509D01*
X151110017Y-96476511D01*
X151103193Y-96480547D01*
X150985547Y-96598193D01*
X150981511Y-96605017D01*
X150981509Y-96605020D01*
X150923348Y-96703365D01*
X150900855Y-96741399D01*
X150898644Y-96749010D01*
X150898643Y-96749012D01*
X150889629Y-96780038D01*
X150854438Y-96901169D01*
X150853934Y-96907574D01*
X150853933Y-96907579D01*
X150851745Y-96935386D01*
X150826459Y-97001727D01*
X150769321Y-97043867D01*
X150726133Y-97051500D01*
X148993362Y-97051500D01*
X148925241Y-97031498D01*
X148878748Y-96977842D01*
X148867750Y-96935381D01*
X148865570Y-96907664D01*
X148863270Y-96895069D01*
X148820893Y-96749210D01*
X148814648Y-96734779D01*
X148738089Y-96605322D01*
X148728449Y-96592896D01*
X148622104Y-96486551D01*
X148609678Y-96476911D01*
X148480221Y-96400352D01*
X148465790Y-96394107D01*
X148319935Y-96351731D01*
X148307333Y-96349430D01*
X148278916Y-96347193D01*
X148273986Y-96347000D01*
X147657115Y-96347000D01*
X147641876Y-96351475D01*
X147640671Y-96352865D01*
X147639000Y-96360548D01*
X147639000Y-97283000D01*
X147618998Y-97351121D01*
X147565342Y-97397614D01*
X147513000Y-97409000D01*
X145923122Y-97409000D01*
X145909591Y-97412973D01*
X145908456Y-97420871D01*
X145949107Y-97560790D01*
X145955352Y-97575221D01*
X146031911Y-97704677D01*
X146037871Y-97712360D01*
X146063820Y-97778444D01*
X146049922Y-97848067D01*
X146039579Y-97864161D01*
X146035547Y-97868193D01*
X145950855Y-98011399D01*
X145904438Y-98171169D01*
X145903934Y-98177574D01*
X145903933Y-98177579D01*
X145901693Y-98206042D01*
X145901500Y-98208498D01*
X145901500Y-98300500D01*
X145881498Y-98368621D01*
X145827842Y-98415114D01*
X145775500Y-98426500D01*
X145488200Y-98426500D01*
X145420079Y-98406498D01*
X145400853Y-98390157D01*
X145400580Y-98390460D01*
X145395668Y-98386037D01*
X145391253Y-98381134D01*
X145280270Y-98300500D01*
X145242094Y-98272763D01*
X145242093Y-98272762D01*
X145236752Y-98268882D01*
X145230724Y-98266198D01*
X145230722Y-98266197D01*
X145068319Y-98193891D01*
X145068318Y-98193891D01*
X145062288Y-98191206D01*
X144938962Y-98164992D01*
X144881944Y-98152872D01*
X144881939Y-98152872D01*
X144875487Y-98151500D01*
X144684513Y-98151500D01*
X144678061Y-98152872D01*
X144678056Y-98152872D01*
X144621038Y-98164992D01*
X144497712Y-98191206D01*
X144491682Y-98193891D01*
X144491681Y-98193891D01*
X144329278Y-98266197D01*
X144329276Y-98266198D01*
X144323248Y-98268882D01*
X144317907Y-98272762D01*
X144317906Y-98272763D01*
X144287830Y-98294615D01*
X144168747Y-98381134D01*
X144164326Y-98386044D01*
X144164325Y-98386045D01*
X144053431Y-98509206D01*
X144040960Y-98523056D01*
X143945473Y-98688444D01*
X143886458Y-98870072D01*
X143885768Y-98876633D01*
X143885768Y-98876635D01*
X143871520Y-99012203D01*
X143866496Y-99060000D01*
X143886458Y-99249928D01*
X143945473Y-99431556D01*
X144040960Y-99596944D01*
X144045378Y-99601851D01*
X144045379Y-99601852D01*
X144145909Y-99713502D01*
X144168747Y-99738866D01*
X144174093Y-99742750D01*
X144174094Y-99742751D01*
X144190457Y-99754640D01*
X144233811Y-99810863D01*
X144239885Y-99881599D01*
X144205490Y-99945670D01*
X142119764Y-102031395D01*
X140036564Y-104114595D01*
X139974252Y-104148621D01*
X139947469Y-104151500D01*
X139286664Y-104151500D01*
X139283418Y-104151837D01*
X139283414Y-104151837D01*
X139187756Y-104161762D01*
X139187752Y-104161763D01*
X139180898Y-104162474D01*
X139174362Y-104164655D01*
X139174360Y-104164655D01*
X139094376Y-104191340D01*
X139013118Y-104218450D01*
X138862716Y-104311522D01*
X138857543Y-104316704D01*
X138776280Y-104398109D01*
X138713998Y-104432188D01*
X138643178Y-104427185D01*
X138598089Y-104398264D01*
X138515547Y-104315866D01*
X138510367Y-104310695D01*
X138504136Y-104306854D01*
X138380448Y-104230611D01*
X138332954Y-104177838D01*
X138320564Y-104123351D01*
X138320564Y-101894500D01*
X138340566Y-101826379D01*
X138394222Y-101779886D01*
X138446564Y-101768500D01*
X138887900Y-101768500D01*
X138891146Y-101768163D01*
X138891150Y-101768163D01*
X138986807Y-101758238D01*
X138986811Y-101758237D01*
X138993665Y-101757526D01*
X139000201Y-101755345D01*
X139000203Y-101755345D01*
X139154497Y-101703868D01*
X139161445Y-101701550D01*
X139311848Y-101608478D01*
X139436805Y-101483303D01*
X139440646Y-101477072D01*
X139525775Y-101338968D01*
X139525776Y-101338966D01*
X139529615Y-101332738D01*
X139579438Y-101182526D01*
X139583132Y-101171389D01*
X139583132Y-101171387D01*
X139585297Y-101164861D01*
X139596000Y-101060400D01*
X139596000Y-100034600D01*
X139589142Y-99968500D01*
X139585738Y-99935693D01*
X139585737Y-99935689D01*
X139585026Y-99928835D01*
X139559098Y-99851118D01*
X139531368Y-99768003D01*
X139529050Y-99761055D01*
X139435978Y-99610652D01*
X139310803Y-99485695D01*
X139243501Y-99444209D01*
X139166468Y-99396725D01*
X139166466Y-99396724D01*
X139160238Y-99392885D01*
X138999754Y-99339655D01*
X138998889Y-99339368D01*
X138998887Y-99339368D01*
X138992361Y-99337203D01*
X138985525Y-99336503D01*
X138985522Y-99336502D01*
X138942469Y-99332091D01*
X138887900Y-99326500D01*
X137537100Y-99326500D01*
X137533854Y-99326837D01*
X137533850Y-99326837D01*
X137438193Y-99336762D01*
X137438189Y-99336763D01*
X137431335Y-99337474D01*
X137424799Y-99339655D01*
X137424797Y-99339655D01*
X137292695Y-99383728D01*
X137263555Y-99393450D01*
X137113152Y-99486522D01*
X136988195Y-99611697D01*
X136984355Y-99617927D01*
X136984354Y-99617928D01*
X136907416Y-99742745D01*
X136895385Y-99762262D01*
X136893081Y-99769209D01*
X136845885Y-99911502D01*
X136839703Y-99930139D01*
X136839003Y-99936975D01*
X136839002Y-99936978D01*
X136834591Y-99980031D01*
X136829000Y-100034600D01*
X136829000Y-101060400D01*
X136829337Y-101063646D01*
X136829337Y-101063650D01*
X136835864Y-101126550D01*
X136839974Y-101166165D01*
X136842155Y-101172701D01*
X136842155Y-101172703D01*
X136861406Y-101230405D01*
X136895950Y-101333945D01*
X136989022Y-101484348D01*
X136994204Y-101489521D01*
X137016582Y-101511860D01*
X137050661Y-101574142D01*
X137053564Y-101601033D01*
X137053564Y-104123219D01*
X137033562Y-104191340D01*
X136993867Y-104230363D01*
X136862716Y-104311522D01*
X136737759Y-104436697D01*
X136644949Y-104587262D01*
X136589267Y-104755139D01*
X136578564Y-104859600D01*
X136578564Y-105860400D01*
X127000000Y-105860400D01*
X127000000Y-98082096D01*
X136829500Y-98082096D01*
X136829837Y-98088611D01*
X136839756Y-98184203D01*
X136842650Y-98197602D01*
X136894088Y-98351783D01*
X136900262Y-98364962D01*
X136985563Y-98502807D01*
X136994599Y-98514208D01*
X137109330Y-98628739D01*
X137120741Y-98637751D01*
X137258745Y-98722818D01*
X137271923Y-98728962D01*
X137426216Y-98780139D01*
X137439581Y-98783005D01*
X137533939Y-98792672D01*
X137540355Y-98793000D01*
X137940385Y-98793000D01*
X137955624Y-98788525D01*
X137956829Y-98787135D01*
X137958500Y-98779452D01*
X137958500Y-98774885D01*
X138466500Y-98774885D01*
X138470975Y-98790124D01*
X138472365Y-98791329D01*
X138480048Y-98793000D01*
X138884596Y-98793000D01*
X138891111Y-98792663D01*
X138986703Y-98782744D01*
X139000102Y-98779850D01*
X139154283Y-98728412D01*
X139167462Y-98722238D01*
X139305307Y-98636937D01*
X139316708Y-98627901D01*
X139431239Y-98513170D01*
X139440251Y-98501759D01*
X139525318Y-98363755D01*
X139531462Y-98350577D01*
X139582639Y-98196284D01*
X139585505Y-98182919D01*
X139595172Y-98088561D01*
X139595500Y-98082145D01*
X139595500Y-97844615D01*
X139591025Y-97829376D01*
X139589635Y-97828171D01*
X139581952Y-97826500D01*
X138484615Y-97826500D01*
X138469376Y-97830975D01*
X138468171Y-97832365D01*
X138466500Y-97840048D01*
X138466500Y-98774885D01*
X137958500Y-98774885D01*
X137958500Y-97844615D01*
X137954025Y-97829376D01*
X137952635Y-97828171D01*
X137944952Y-97826500D01*
X136847615Y-97826500D01*
X136832376Y-97830975D01*
X136831171Y-97832365D01*
X136829500Y-97840048D01*
X136829500Y-98082096D01*
X127000000Y-98082096D01*
X127000000Y-97300385D01*
X136829500Y-97300385D01*
X136833975Y-97315624D01*
X136835365Y-97316829D01*
X136843048Y-97318500D01*
X137940385Y-97318500D01*
X137955624Y-97314025D01*
X137956829Y-97312635D01*
X137958500Y-97304952D01*
X137958500Y-97300385D01*
X138466500Y-97300385D01*
X138470975Y-97315624D01*
X138472365Y-97316829D01*
X138480048Y-97318500D01*
X139577385Y-97318500D01*
X139592624Y-97314025D01*
X139593829Y-97312635D01*
X139595500Y-97304952D01*
X139595500Y-97062904D01*
X139595163Y-97056389D01*
X139585244Y-96960797D01*
X139582350Y-96947398D01*
X139561067Y-96883605D01*
X145910061Y-96883605D01*
X145910101Y-96897706D01*
X145917370Y-96901000D01*
X147112885Y-96901000D01*
X147128124Y-96896525D01*
X147129329Y-96895135D01*
X147131000Y-96887452D01*
X147131000Y-96365116D01*
X147126525Y-96349877D01*
X147125135Y-96348672D01*
X147117452Y-96347001D01*
X146496017Y-96347001D01*
X146491080Y-96347195D01*
X146462664Y-96349430D01*
X146450069Y-96351730D01*
X146304210Y-96394107D01*
X146289779Y-96400352D01*
X146160322Y-96476911D01*
X146147896Y-96486551D01*
X146041551Y-96592896D01*
X146031911Y-96605322D01*
X145955352Y-96734779D01*
X145949107Y-96749210D01*
X145910061Y-96883605D01*
X139561067Y-96883605D01*
X139530912Y-96793217D01*
X139524738Y-96780038D01*
X139439437Y-96642193D01*
X139430401Y-96630792D01*
X139315670Y-96516261D01*
X139304259Y-96507249D01*
X139166255Y-96422182D01*
X139153077Y-96416038D01*
X138998784Y-96364861D01*
X138985419Y-96361995D01*
X138891061Y-96352328D01*
X138884644Y-96352000D01*
X138484615Y-96352000D01*
X138469376Y-96356475D01*
X138468171Y-96357865D01*
X138466500Y-96365548D01*
X138466500Y-97300385D01*
X137958500Y-97300385D01*
X137958500Y-96370115D01*
X137954025Y-96354876D01*
X137952635Y-96353671D01*
X137944952Y-96352000D01*
X137540404Y-96352000D01*
X137533889Y-96352337D01*
X137438297Y-96362256D01*
X137424898Y-96365150D01*
X137270717Y-96416588D01*
X137257538Y-96422762D01*
X137119693Y-96508063D01*
X137108292Y-96517099D01*
X136993761Y-96631830D01*
X136984749Y-96643241D01*
X136899682Y-96781245D01*
X136893538Y-96794423D01*
X136842361Y-96948716D01*
X136839495Y-96962081D01*
X136829828Y-97056439D01*
X136829500Y-97062856D01*
X136829500Y-97300385D01*
X127000000Y-97300385D01*
X127000000Y-87949654D01*
X158795618Y-87949654D01*
X158802673Y-87959627D01*
X158833679Y-87985551D01*
X158840598Y-87990579D01*
X159065272Y-88131515D01*
X159072807Y-88135556D01*
X159314520Y-88244694D01*
X159322551Y-88247680D01*
X159576832Y-88323002D01*
X159585184Y-88324869D01*
X159847340Y-88364984D01*
X159855874Y-88365700D01*
X160121045Y-88369867D01*
X160129596Y-88369418D01*
X160392883Y-88337557D01*
X160401284Y-88335955D01*
X160657824Y-88268653D01*
X160665926Y-88265926D01*
X160910949Y-88164434D01*
X160918617Y-88160628D01*
X161147598Y-88026822D01*
X161154679Y-88022009D01*
X161234655Y-87959301D01*
X161243125Y-87947442D01*
X161236608Y-87935818D01*
X160032812Y-86732022D01*
X160018868Y-86724408D01*
X160017035Y-86724539D01*
X160010420Y-86728790D01*
X158802910Y-87936300D01*
X158795618Y-87949654D01*
X127000000Y-87949654D01*
X127000000Y-86343204D01*
X158007665Y-86343204D01*
X158022932Y-86607969D01*
X158024005Y-86616470D01*
X158075065Y-86876722D01*
X158077276Y-86884974D01*
X158163184Y-87135894D01*
X158166499Y-87143779D01*
X158285664Y-87380713D01*
X158290020Y-87388079D01*
X158419347Y-87576250D01*
X158429601Y-87584594D01*
X158443342Y-87577448D01*
X159647978Y-86372812D01*
X159654356Y-86361132D01*
X160384408Y-86361132D01*
X160384539Y-86362965D01*
X160388790Y-86369580D01*
X161595730Y-87576520D01*
X161607939Y-87583187D01*
X161619439Y-87574497D01*
X161716831Y-87441913D01*
X161721418Y-87434685D01*
X161847962Y-87201621D01*
X161851530Y-87193827D01*
X161945271Y-86945750D01*
X161947748Y-86937544D01*
X162006954Y-86679038D01*
X162008294Y-86670577D01*
X162032031Y-86404616D01*
X162032277Y-86399677D01*
X162032666Y-86362485D01*
X162032523Y-86357519D01*
X162014362Y-86091123D01*
X162013201Y-86082649D01*
X161959419Y-85822944D01*
X161957120Y-85814709D01*
X161868588Y-85564705D01*
X161865191Y-85556854D01*
X161743550Y-85321178D01*
X161739122Y-85313866D01*
X161620031Y-85144417D01*
X161609509Y-85136037D01*
X161596121Y-85143089D01*
X160392022Y-86347188D01*
X160384408Y-86361132D01*
X159654356Y-86361132D01*
X159655592Y-86358868D01*
X159655461Y-86357035D01*
X159651210Y-86350420D01*
X158443814Y-85143024D01*
X158431804Y-85136466D01*
X158420064Y-85145434D01*
X158311935Y-85295911D01*
X158307418Y-85303196D01*
X158183325Y-85537567D01*
X158179839Y-85545395D01*
X158088700Y-85794446D01*
X158086311Y-85802670D01*
X158029812Y-86061795D01*
X158028563Y-86070250D01*
X158007754Y-86334653D01*
X158007665Y-86343204D01*
X127000000Y-86343204D01*
X127000000Y-84772500D01*
X158796584Y-84772500D01*
X158802980Y-84783770D01*
X160007188Y-85987978D01*
X160021132Y-85995592D01*
X160022965Y-85995461D01*
X160029580Y-85991210D01*
X161236604Y-84784186D01*
X161243795Y-84771017D01*
X161236473Y-84760780D01*
X161189233Y-84722115D01*
X161182261Y-84717160D01*
X160956122Y-84578582D01*
X160948552Y-84574624D01*
X160705704Y-84468022D01*
X160697644Y-84465120D01*
X160442592Y-84392467D01*
X160434214Y-84390685D01*
X160171656Y-84353318D01*
X160163111Y-84352691D01*
X159897908Y-84351302D01*
X159889374Y-84351839D01*
X159626433Y-84386456D01*
X159618035Y-84388149D01*
X159362238Y-84458127D01*
X159354143Y-84460946D01*
X159110199Y-84564997D01*
X159102577Y-84568881D01*
X158875013Y-84705075D01*
X158867981Y-84709962D01*
X158805053Y-84760377D01*
X158796584Y-84772500D01*
X127000000Y-84772500D01*
X127000000Y-81406000D01*
X127020002Y-81337879D01*
X127073658Y-81291386D01*
X127126000Y-81280000D01*
X175738008Y-81280000D01*
X175806129Y-81300002D01*
G37*
%TD.AperFunction*%
%TD*%
M02*
