%TF.GenerationSoftware,KiCad,Pcbnew,(6.0.11)*%
%TF.CreationDate,2023-02-16T14:22:11-08:00*%
%TF.ProjectId,Lab 4 Exercise 1,4c616220-3420-4457-9865-726369736520,rev?*%
%TF.SameCoordinates,Original*%
%TF.FileFunction,Legend,Top*%
%TF.FilePolarity,Positive*%
%FSLAX46Y46*%
G04 Gerber Fmt 4.6, Leading zero omitted, Abs format (unit mm)*
G04 Created by KiCad (PCBNEW (6.0.11)) date 2023-02-16 14:22:11*
%MOMM*%
%LPD*%
G01*
G04 APERTURE LIST*
%ADD10C,0.150000*%
%ADD11C,0.120000*%
G04 APERTURE END LIST*
D10*
%TO.C,V1*%
X117012380Y-129574523D02*
X118012380Y-129241190D01*
X117012380Y-128907857D01*
X118012380Y-128050714D02*
X118012380Y-128622142D01*
X118012380Y-128336428D02*
X117012380Y-128336428D01*
X117155238Y-128431666D01*
X117250476Y-128526904D01*
X117298095Y-128622142D01*
%TO.C,D1*%
X128572380Y-129008095D02*
X127572380Y-129008095D01*
X127572380Y-128770000D01*
X127620000Y-128627142D01*
X127715238Y-128531904D01*
X127810476Y-128484285D01*
X128000952Y-128436666D01*
X128143809Y-128436666D01*
X128334285Y-128484285D01*
X128429523Y-128531904D01*
X128524761Y-128627142D01*
X128572380Y-128770000D01*
X128572380Y-129008095D01*
X128572380Y-127484285D02*
X128572380Y-128055714D01*
X128572380Y-127770000D02*
X127572380Y-127770000D01*
X127715238Y-127865238D01*
X127810476Y-127960476D01*
X127858095Y-128055714D01*
%TO.C,R2*%
X124293333Y-77732380D02*
X123960000Y-77256190D01*
X123721904Y-77732380D02*
X123721904Y-76732380D01*
X124102857Y-76732380D01*
X124198095Y-76780000D01*
X124245714Y-76827619D01*
X124293333Y-76922857D01*
X124293333Y-77065714D01*
X124245714Y-77160952D01*
X124198095Y-77208571D01*
X124102857Y-77256190D01*
X123721904Y-77256190D01*
X124674285Y-76827619D02*
X124721904Y-76780000D01*
X124817142Y-76732380D01*
X125055238Y-76732380D01*
X125150476Y-76780000D01*
X125198095Y-76827619D01*
X125245714Y-76922857D01*
X125245714Y-77018095D01*
X125198095Y-77160952D01*
X124626666Y-77732380D01*
X125245714Y-77732380D01*
%TO.C,C1*%
X195453333Y-133687142D02*
X195405714Y-133734761D01*
X195262857Y-133782380D01*
X195167619Y-133782380D01*
X195024761Y-133734761D01*
X194929523Y-133639523D01*
X194881904Y-133544285D01*
X194834285Y-133353809D01*
X194834285Y-133210952D01*
X194881904Y-133020476D01*
X194929523Y-132925238D01*
X195024761Y-132830000D01*
X195167619Y-132782380D01*
X195262857Y-132782380D01*
X195405714Y-132830000D01*
X195453333Y-132877619D01*
X196405714Y-133782380D02*
X195834285Y-133782380D01*
X196120000Y-133782380D02*
X196120000Y-132782380D01*
X196024761Y-132925238D01*
X195929523Y-133020476D01*
X195834285Y-133068095D01*
%TO.C,SW1*%
X133329166Y-86102261D02*
X133472023Y-86149880D01*
X133710119Y-86149880D01*
X133805357Y-86102261D01*
X133852976Y-86054642D01*
X133900595Y-85959404D01*
X133900595Y-85864166D01*
X133852976Y-85768928D01*
X133805357Y-85721309D01*
X133710119Y-85673690D01*
X133519642Y-85626071D01*
X133424404Y-85578452D01*
X133376785Y-85530833D01*
X133329166Y-85435595D01*
X133329166Y-85340357D01*
X133376785Y-85245119D01*
X133424404Y-85197500D01*
X133519642Y-85149880D01*
X133757738Y-85149880D01*
X133900595Y-85197500D01*
X134233928Y-85149880D02*
X134472023Y-86149880D01*
X134662500Y-85435595D01*
X134852976Y-86149880D01*
X135091071Y-85149880D01*
X135995833Y-86149880D02*
X135424404Y-86149880D01*
X135710119Y-86149880D02*
X135710119Y-85149880D01*
X135614880Y-85292738D01*
X135519642Y-85387976D01*
X135424404Y-85435595D01*
%TO.C,R1*%
X161552380Y-106846666D02*
X161076190Y-107180000D01*
X161552380Y-107418095D02*
X160552380Y-107418095D01*
X160552380Y-107037142D01*
X160600000Y-106941904D01*
X160647619Y-106894285D01*
X160742857Y-106846666D01*
X160885714Y-106846666D01*
X160980952Y-106894285D01*
X161028571Y-106941904D01*
X161076190Y-107037142D01*
X161076190Y-107418095D01*
X161552380Y-105894285D02*
X161552380Y-106465714D01*
X161552380Y-106180000D02*
X160552380Y-106180000D01*
X160695238Y-106275238D01*
X160790476Y-106370476D01*
X160838095Y-106465714D01*
D11*
%TO.C,V1*%
X116570000Y-127465000D02*
X116570000Y-127165000D01*
X115160000Y-125705000D02*
X115160000Y-126315000D01*
X112360000Y-128765000D02*
X112860000Y-128765000D01*
X115160000Y-131825000D02*
X115160000Y-131215000D01*
X112860000Y-128865000D02*
X112360000Y-128865000D01*
X116770000Y-126655000D02*
X116770000Y-125405000D01*
X113860000Y-131825000D02*
X113860000Y-131215000D01*
X116470000Y-127465000D02*
X116670000Y-127465000D01*
X116470000Y-131825000D02*
X116470000Y-125705000D01*
X112360000Y-128665000D02*
X112860000Y-128665000D01*
X115860000Y-128265000D02*
X115860000Y-126315000D01*
X115860000Y-129265000D02*
X116470000Y-129265000D01*
X115860000Y-131215000D02*
X115860000Y-129265000D01*
X116670000Y-127465000D02*
X116670000Y-127165000D01*
X116770000Y-125405000D02*
X115520000Y-125405000D01*
X112360000Y-126315000D02*
X112360000Y-131215000D01*
X116470000Y-125705000D02*
X111750000Y-125705000D01*
X113860000Y-125705000D02*
X113860000Y-126315000D01*
X115860000Y-126315000D02*
X112360000Y-126315000D01*
X112360000Y-131215000D02*
X115860000Y-131215000D01*
X111750000Y-125705000D02*
X111750000Y-131825000D01*
X111750000Y-131825000D02*
X116470000Y-131825000D01*
X116670000Y-127165000D02*
X116470000Y-127165000D01*
X112860000Y-128665000D02*
X112860000Y-128865000D01*
X116470000Y-128265000D02*
X115860000Y-128265000D01*
%TO.C,D1*%
X130535000Y-130830000D02*
X133625000Y-130830000D01*
X133624830Y-130830000D02*
G75*
G03*
X132079538Y-125280000I-1544830J2560000D01*
G01*
X132080462Y-125280000D02*
G75*
G03*
X130535170Y-130830000I-462J-2990000D01*
G01*
X134580000Y-128270000D02*
G75*
G03*
X134580000Y-128270000I-2500000J0D01*
G01*
%TO.C,R2*%
X116590000Y-76280000D02*
X132330000Y-76280000D01*
X132330000Y-71040000D02*
X116590000Y-71040000D01*
X133180000Y-73660000D02*
X132330000Y-73660000D01*
X115740000Y-73660000D02*
X116590000Y-73660000D01*
X132330000Y-76280000D02*
X132330000Y-71040000D01*
X116590000Y-71040000D02*
X116590000Y-76280000D01*
%TO.C,C1*%
X198240000Y-129580000D02*
G75*
G03*
X198240000Y-129580000I-2620000J0D01*
G01*
%TO.C,SW1*%
X127662500Y-92497500D02*
X127662500Y-87297500D01*
X127362500Y-86897500D02*
X127362500Y-85597500D01*
X129712500Y-86547500D02*
X139612500Y-86547500D01*
X127362500Y-85597500D02*
X128662500Y-85597500D01*
X141662500Y-87297500D02*
X141662500Y-92497500D01*
X139612500Y-93247500D02*
X129712500Y-93247500D01*
%TO.C,R1*%
X157480000Y-115400000D02*
X157480000Y-114550000D01*
X154860000Y-114550000D02*
X160100000Y-114550000D01*
X154860000Y-98810000D02*
X154860000Y-114550000D01*
X160100000Y-98810000D02*
X154860000Y-98810000D01*
X160100000Y-114550000D02*
X160100000Y-98810000D01*
X157480000Y-97960000D02*
X157480000Y-98810000D01*
%TD*%
M02*
