%TF.GenerationSoftware,KiCad,Pcbnew,(6.0.11)*%
%TF.CreationDate,2023-02-16T14:22:11-08:00*%
%TF.ProjectId,Lab 4 Exercise 1,4c616220-3420-4457-9865-726369736520,rev?*%
%TF.SameCoordinates,Original*%
%TF.FileFunction,Copper,L1,Top*%
%TF.FilePolarity,Positive*%
%FSLAX46Y46*%
G04 Gerber Fmt 4.6, Leading zero omitted, Abs format (unit mm)*
G04 Created by KiCad (PCBNEW (6.0.11)) date 2023-02-16 14:22:11*
%MOMM*%
%LPD*%
G01*
G04 APERTURE LIST*
G04 Aperture macros list*
%AMRoundRect*
0 Rectangle with rounded corners*
0 $1 Rounding radius*
0 $2 $3 $4 $5 $6 $7 $8 $9 X,Y pos of 4 corners*
0 Add a 4 corners polygon primitive as box body*
4,1,4,$2,$3,$4,$5,$6,$7,$8,$9,$2,$3,0*
0 Add four circle primitives for the rounded corners*
1,1,$1+$1,$2,$3*
1,1,$1+$1,$4,$5*
1,1,$1+$1,$6,$7*
1,1,$1+$1,$8,$9*
0 Add four rect primitives between the rounded corners*
20,1,$1+$1,$2,$3,$4,$5,0*
20,1,$1+$1,$4,$5,$6,$7,0*
20,1,$1+$1,$6,$7,$8,$9,0*
20,1,$1+$1,$8,$9,$2,$3,0*%
G04 Aperture macros list end*
%TA.AperFunction,ComponentPad*%
%ADD10RoundRect,0.250000X-0.625000X0.350000X-0.625000X-0.350000X0.625000X-0.350000X0.625000X0.350000X0*%
%TD*%
%TA.AperFunction,ComponentPad*%
%ADD11O,1.750000X1.200000*%
%TD*%
%TA.AperFunction,ComponentPad*%
%ADD12R,1.800000X1.800000*%
%TD*%
%TA.AperFunction,ComponentPad*%
%ADD13C,1.800000*%
%TD*%
%TA.AperFunction,ComponentPad*%
%ADD14C,2.400000*%
%TD*%
%TA.AperFunction,ComponentPad*%
%ADD15O,2.400000X2.400000*%
%TD*%
%TA.AperFunction,ComponentPad*%
%ADD16C,1.200000*%
%TD*%
%TA.AperFunction,ComponentPad*%
%ADD17C,2.000000*%
%TD*%
%TA.AperFunction,ComponentPad*%
%ADD18C,1.700000*%
%TD*%
%TA.AperFunction,Conductor*%
%ADD19C,0.250000*%
%TD*%
G04 APERTURE END LIST*
D10*
%TO.P,V1,1,Pin_1*%
%TO.N,Net-(R2-Pad2)*%
X114660000Y-127765000D03*
D11*
%TO.P,V1,2,Pin_2*%
%TO.N,GND*%
X114660000Y-129765000D03*
%TD*%
D12*
%TO.P,D1,1,K*%
%TO.N,GND*%
X132080000Y-129540000D03*
D13*
%TO.P,D1,2,A*%
%TO.N,Net-(D1-Pad2)*%
X132080000Y-127000000D03*
%TD*%
D14*
%TO.P,R2,1*%
%TO.N,Net-(R2-Pad1)*%
X134620000Y-73660000D03*
D15*
%TO.P,R2,2*%
%TO.N,Net-(R2-Pad2)*%
X114300000Y-73660000D03*
%TD*%
D16*
%TO.P,C1,1*%
%TO.N,Net-(C1-Pad1)*%
X196620000Y-129580000D03*
%TO.P,C1,2*%
%TO.N,GND*%
X194620000Y-129580000D03*
%TD*%
D17*
%TO.P,SW1,*%
%TO.N,*%
X128662500Y-92897500D03*
X128662500Y-86897500D03*
X140662500Y-86897500D03*
X140662500Y-92897500D03*
D18*
%TO.P,SW1,1,A*%
%TO.N,unconnected-(SW1-Pad1)*%
X130662500Y-88647500D03*
%TO.P,SW1,2,B*%
%TO.N,Net-(R2-Pad1)*%
X134662500Y-88647500D03*
%TO.P,SW1,3,C*%
%TO.N,Net-(C1-Pad1)*%
X138662500Y-88647500D03*
%TD*%
D14*
%TO.P,R1,1*%
%TO.N,Net-(C1-Pad1)*%
X157480000Y-96520000D03*
D15*
%TO.P,R1,2*%
%TO.N,Net-(D1-Pad2)*%
X157480000Y-116840000D03*
%TD*%
D19*
%TO.N,Net-(C1-Pad1)*%
X163560000Y-96520000D02*
X196620000Y-129580000D01*
X149607500Y-88647500D02*
X157480000Y-96520000D01*
X138662500Y-88647500D02*
X149607500Y-88647500D01*
X157480000Y-96520000D02*
X163560000Y-96520000D01*
%TO.N,GND*%
X131855000Y-129765000D02*
X132080000Y-129540000D01*
X132080000Y-129540000D02*
X194580000Y-129540000D01*
X114660000Y-129765000D02*
X131855000Y-129765000D01*
X194580000Y-129540000D02*
X194620000Y-129580000D01*
%TO.N,Net-(D1-Pad2)*%
X142240000Y-116840000D02*
X132080000Y-127000000D01*
X157480000Y-116840000D02*
X142240000Y-116840000D01*
%TO.N,Net-(R2-Pad1)*%
X134662500Y-88857500D02*
X134662500Y-88647500D01*
X134620000Y-88900000D02*
X134662500Y-88857500D01*
X134620000Y-73660000D02*
X134620000Y-88900000D01*
%TO.N,Net-(R2-Pad2)*%
X114300000Y-127405000D02*
X114660000Y-127765000D01*
X114300000Y-73660000D02*
X114300000Y-127405000D01*
%TD*%
%TA.AperFunction,Conductor*%
%TO.N,GND*%
G36*
X196126129Y-68600002D02*
G01*
X196172622Y-68653658D01*
X196182726Y-68723932D01*
X196153232Y-68788512D01*
X196141006Y-68800801D01*
X195983716Y-68938498D01*
X195753860Y-69190223D01*
X195553495Y-69466001D01*
X195385121Y-69762394D01*
X195383734Y-69765629D01*
X195383732Y-69765634D01*
X195252219Y-70072477D01*
X195250834Y-70075709D01*
X195152309Y-70402040D01*
X195090773Y-70737320D01*
X195066995Y-71077369D01*
X195067890Y-71098727D01*
X195081269Y-71417950D01*
X195081804Y-71421408D01*
X195081805Y-71421415D01*
X195132881Y-71751344D01*
X195133419Y-71754817D01*
X195222794Y-72083772D01*
X195348280Y-72400714D01*
X195508314Y-72701693D01*
X195510299Y-72704592D01*
X195698909Y-72980051D01*
X195698914Y-72980057D01*
X195700900Y-72982958D01*
X195923638Y-73241002D01*
X196173751Y-73472610D01*
X196448124Y-73674895D01*
X196451161Y-73676649D01*
X196451165Y-73676651D01*
X196583056Y-73752798D01*
X196743334Y-73845335D01*
X196786345Y-73864126D01*
X197052482Y-73980399D01*
X197052492Y-73980403D01*
X197055704Y-73981806D01*
X197059061Y-73982845D01*
X197059066Y-73982847D01*
X197377979Y-74081567D01*
X197381339Y-74082607D01*
X197384795Y-74083266D01*
X197384794Y-74083266D01*
X197712730Y-74145823D01*
X197712735Y-74145824D01*
X197716181Y-74146481D01*
X197940197Y-74163718D01*
X198052559Y-74172364D01*
X198052560Y-74172364D01*
X198056056Y-74172633D01*
X198268407Y-74165218D01*
X198393214Y-74160860D01*
X198393219Y-74160860D01*
X198396729Y-74160737D01*
X198565340Y-74135839D01*
X198730473Y-74111454D01*
X198730478Y-74111453D01*
X198733952Y-74110940D01*
X198737344Y-74110044D01*
X198737348Y-74110043D01*
X199060132Y-74024760D01*
X199060133Y-74024760D01*
X199063523Y-74023864D01*
X199381333Y-73900593D01*
X199683422Y-73742665D01*
X199966024Y-73552047D01*
X200225617Y-73331116D01*
X200442150Y-73100532D01*
X200503363Y-73064567D01*
X200574303Y-73067405D01*
X200632447Y-73108145D01*
X200659335Y-73173853D01*
X200660000Y-73186785D01*
X200660000Y-131954000D01*
X200639998Y-132022121D01*
X200586342Y-132068614D01*
X200534000Y-132080000D01*
X106806000Y-132080000D01*
X106737879Y-132059998D01*
X106691386Y-132006342D01*
X106680000Y-131954000D01*
X106680000Y-130032399D01*
X113309712Y-130032399D01*
X113331194Y-130121537D01*
X113335083Y-130132832D01*
X113417629Y-130314382D01*
X113423576Y-130324724D01*
X113538968Y-130487397D01*
X113546761Y-130496425D01*
X113690831Y-130634342D01*
X113700196Y-130641738D01*
X113867741Y-130749921D01*
X113878345Y-130755417D01*
X114063312Y-130829961D01*
X114074770Y-130833355D01*
X114271928Y-130871857D01*
X114280791Y-130872934D01*
X114283500Y-130873000D01*
X114387885Y-130873000D01*
X114403124Y-130868525D01*
X114404329Y-130867135D01*
X114406000Y-130859452D01*
X114406000Y-130854885D01*
X114914000Y-130854885D01*
X114918475Y-130870124D01*
X114919865Y-130871329D01*
X114927548Y-130873000D01*
X114984832Y-130873000D01*
X114990808Y-130872715D01*
X115139494Y-130858529D01*
X115151228Y-130856270D01*
X115342599Y-130800128D01*
X115353675Y-130795698D01*
X115530978Y-130704381D01*
X115541024Y-130697931D01*
X115697857Y-130574738D01*
X115706506Y-130566501D01*
X115777517Y-130484669D01*
X130672001Y-130484669D01*
X130672371Y-130491490D01*
X130677895Y-130542352D01*
X130681521Y-130557604D01*
X130726676Y-130678054D01*
X130735214Y-130693649D01*
X130811715Y-130795724D01*
X130824276Y-130808285D01*
X130926351Y-130884786D01*
X130941946Y-130893324D01*
X131062394Y-130938478D01*
X131077649Y-130942105D01*
X131128514Y-130947631D01*
X131135328Y-130948000D01*
X131807885Y-130948000D01*
X131823124Y-130943525D01*
X131824329Y-130942135D01*
X131826000Y-130934452D01*
X131826000Y-130929884D01*
X132334000Y-130929884D01*
X132338475Y-130945123D01*
X132339865Y-130946328D01*
X132347548Y-130947999D01*
X133024669Y-130947999D01*
X133031490Y-130947629D01*
X133082352Y-130942105D01*
X133097604Y-130938479D01*
X133218054Y-130893324D01*
X133233649Y-130884786D01*
X133335724Y-130808285D01*
X133348285Y-130795724D01*
X133424786Y-130693649D01*
X133433324Y-130678054D01*
X133478478Y-130557606D01*
X133482105Y-130542351D01*
X133484393Y-130521294D01*
X194043066Y-130521294D01*
X194052948Y-130533783D01*
X194084239Y-130554691D01*
X194094349Y-130560181D01*
X194270835Y-130636005D01*
X194281778Y-130639560D01*
X194469120Y-130681952D01*
X194480530Y-130683454D01*
X194672469Y-130690995D01*
X194683951Y-130690393D01*
X194874045Y-130662832D01*
X194885240Y-130660144D01*
X195067131Y-130598400D01*
X195077628Y-130593726D01*
X195188032Y-130531898D01*
X195197895Y-130521821D01*
X195194940Y-130514151D01*
X194632811Y-129952021D01*
X194618868Y-129944408D01*
X194617034Y-129944539D01*
X194610420Y-129948790D01*
X194049259Y-130509952D01*
X194043066Y-130521294D01*
X133484393Y-130521294D01*
X133487631Y-130491486D01*
X133488000Y-130484672D01*
X133488000Y-129812115D01*
X133483525Y-129796876D01*
X133482135Y-129795671D01*
X133474452Y-129794000D01*
X132352115Y-129794000D01*
X132336876Y-129798475D01*
X132335671Y-129799865D01*
X132334000Y-129807548D01*
X132334000Y-130929884D01*
X131826000Y-130929884D01*
X131826000Y-129812115D01*
X131821525Y-129796876D01*
X131820135Y-129795671D01*
X131812452Y-129794000D01*
X130690116Y-129794000D01*
X130674877Y-129798475D01*
X130673672Y-129799865D01*
X130672001Y-129807548D01*
X130672001Y-130484669D01*
X115777517Y-130484669D01*
X115837212Y-130415877D01*
X115844147Y-130406153D01*
X115944010Y-130233533D01*
X115948984Y-130222669D01*
X116014407Y-130034273D01*
X116014648Y-130033284D01*
X116013180Y-130022992D01*
X115999615Y-130019000D01*
X114932115Y-130019000D01*
X114916876Y-130023475D01*
X114915671Y-130024865D01*
X114914000Y-130032548D01*
X114914000Y-130854885D01*
X114406000Y-130854885D01*
X114406000Y-130037115D01*
X114401525Y-130021876D01*
X114400135Y-130020671D01*
X114392452Y-130019000D01*
X113324598Y-130019000D01*
X113311067Y-130022973D01*
X113309712Y-130032399D01*
X106680000Y-130032399D01*
X106680000Y-129556638D01*
X193508012Y-129556638D01*
X193520575Y-129748304D01*
X193522376Y-129759674D01*
X193569657Y-129945843D01*
X193573498Y-129956690D01*
X193653916Y-130131130D01*
X193659664Y-130141086D01*
X193665788Y-130149751D01*
X193676377Y-130158140D01*
X193689676Y-130151113D01*
X194247979Y-129592811D01*
X194255592Y-129578868D01*
X194255461Y-129577034D01*
X194251210Y-129570420D01*
X193688538Y-129007749D01*
X193676163Y-129000992D01*
X193670197Y-129005458D01*
X193594645Y-129149058D01*
X193590242Y-129159691D01*
X193533281Y-129343132D01*
X193530891Y-129354376D01*
X193508313Y-129545137D01*
X193508012Y-129556638D01*
X106680000Y-129556638D01*
X106680000Y-73615151D01*
X112587296Y-73615151D01*
X112599480Y-73868798D01*
X112621679Y-73980399D01*
X112647467Y-74110043D01*
X112649021Y-74117857D01*
X112650600Y-74122255D01*
X112650602Y-74122262D01*
X112695022Y-74245980D01*
X112734831Y-74356858D01*
X112855025Y-74580551D01*
X112857820Y-74584294D01*
X112857822Y-74584297D01*
X113004171Y-74780282D01*
X113004176Y-74780288D01*
X113006963Y-74784020D01*
X113010272Y-74787300D01*
X113010277Y-74787306D01*
X113108859Y-74885031D01*
X113187307Y-74962797D01*
X113191069Y-74965555D01*
X113191072Y-74965558D01*
X113296764Y-75043054D01*
X113392094Y-75112953D01*
X113396231Y-75115129D01*
X113396238Y-75115134D01*
X113599167Y-75221900D01*
X113650140Y-75271319D01*
X113666500Y-75333408D01*
X113666500Y-126680819D01*
X113646498Y-126748940D01*
X113606804Y-126787962D01*
X113560652Y-126816522D01*
X113435695Y-126941697D01*
X113431855Y-126947927D01*
X113431854Y-126947928D01*
X113357199Y-127069041D01*
X113342885Y-127092262D01*
X113287203Y-127260139D01*
X113276500Y-127364600D01*
X113276500Y-128165400D01*
X113276837Y-128168646D01*
X113276837Y-128168650D01*
X113281542Y-128213991D01*
X113287474Y-128271166D01*
X113343450Y-128438946D01*
X113436522Y-128589348D01*
X113561697Y-128714305D01*
X113567929Y-128718147D01*
X113567931Y-128718148D01*
X113613690Y-128746355D01*
X113661183Y-128799127D01*
X113672605Y-128869199D01*
X113644331Y-128934323D01*
X113625403Y-128952702D01*
X113622144Y-128955262D01*
X113613494Y-128963499D01*
X113482788Y-129114123D01*
X113475853Y-129123847D01*
X113375990Y-129296467D01*
X113371016Y-129307331D01*
X113305593Y-129495727D01*
X113305352Y-129496716D01*
X113306820Y-129507008D01*
X113320385Y-129511000D01*
X115995402Y-129511000D01*
X116008933Y-129507027D01*
X116010288Y-129497601D01*
X115988806Y-129408463D01*
X115984917Y-129397168D01*
X115902371Y-129215618D01*
X115896424Y-129205276D01*
X115781032Y-129042603D01*
X115773239Y-129033575D01*
X115682243Y-128946465D01*
X115646867Y-128884910D01*
X115650386Y-128814000D01*
X115691683Y-128756250D01*
X115703053Y-128748315D01*
X115759348Y-128713478D01*
X115884305Y-128588303D01*
X115888146Y-128582072D01*
X115973275Y-128443968D01*
X115973276Y-128443966D01*
X115977115Y-128437738D01*
X116032797Y-128269861D01*
X116043500Y-128165400D01*
X116043500Y-127364600D01*
X116037173Y-127303617D01*
X116033238Y-127265692D01*
X116033237Y-127265688D01*
X116032526Y-127258834D01*
X116011796Y-127196697D01*
X115978868Y-127098002D01*
X115976550Y-127091054D01*
X115898835Y-126965469D01*
X130667095Y-126965469D01*
X130667392Y-126970622D01*
X130667392Y-126970625D01*
X130674806Y-127099209D01*
X130680427Y-127196697D01*
X130681564Y-127201743D01*
X130681565Y-127201749D01*
X130713741Y-127344523D01*
X130731346Y-127422642D01*
X130733288Y-127427424D01*
X130733289Y-127427428D01*
X130816540Y-127632450D01*
X130818484Y-127637237D01*
X130939501Y-127834719D01*
X130942882Y-127838622D01*
X131051653Y-127964191D01*
X131081135Y-128028776D01*
X131071020Y-128099049D01*
X131024519Y-128152697D01*
X131000646Y-128164670D01*
X130941944Y-128186677D01*
X130926351Y-128195214D01*
X130824276Y-128271715D01*
X130811715Y-128284276D01*
X130735214Y-128386351D01*
X130726676Y-128401946D01*
X130681522Y-128522394D01*
X130677895Y-128537649D01*
X130672369Y-128588514D01*
X130672000Y-128595328D01*
X130672000Y-129267885D01*
X130676475Y-129283124D01*
X130677865Y-129284329D01*
X130685548Y-129286000D01*
X133469884Y-129286000D01*
X133485123Y-129281525D01*
X133486328Y-129280135D01*
X133487999Y-129272452D01*
X133487999Y-128595331D01*
X133487629Y-128588510D01*
X133482105Y-128537648D01*
X133478479Y-128522396D01*
X133433324Y-128401946D01*
X133424786Y-128386351D01*
X133348285Y-128284276D01*
X133335724Y-128271715D01*
X133233649Y-128195214D01*
X133218052Y-128186675D01*
X133159415Y-128164693D01*
X133102650Y-128122052D01*
X133077950Y-128055490D01*
X133093157Y-127986141D01*
X133114703Y-127957461D01*
X133152641Y-127919654D01*
X133156303Y-127916005D01*
X133291458Y-127727917D01*
X133338641Y-127632450D01*
X133391784Y-127524922D01*
X133391785Y-127524920D01*
X133394078Y-127520280D01*
X133461408Y-127298671D01*
X133491640Y-127069041D01*
X133493327Y-127000000D01*
X133474349Y-126769167D01*
X133438026Y-126624560D01*
X133440830Y-126553618D01*
X133471135Y-126504769D01*
X142465500Y-117510405D01*
X142527812Y-117476379D01*
X142554595Y-117473500D01*
X155805453Y-117473500D01*
X155873574Y-117493502D01*
X155916445Y-117539862D01*
X156035025Y-117760551D01*
X156037820Y-117764294D01*
X156037822Y-117764297D01*
X156184171Y-117960282D01*
X156184176Y-117960288D01*
X156186963Y-117964020D01*
X156190272Y-117967300D01*
X156190277Y-117967306D01*
X156288859Y-118065031D01*
X156367307Y-118142797D01*
X156371069Y-118145555D01*
X156371072Y-118145558D01*
X156476764Y-118223054D01*
X156572094Y-118292953D01*
X156576229Y-118295129D01*
X156576233Y-118295131D01*
X156694289Y-118357243D01*
X156796827Y-118411191D01*
X157036568Y-118494912D01*
X157286050Y-118542278D01*
X157406532Y-118547011D01*
X157535125Y-118552064D01*
X157535130Y-118552064D01*
X157539793Y-118552247D01*
X157638774Y-118541407D01*
X157787569Y-118525112D01*
X157787575Y-118525111D01*
X157792222Y-118524602D01*
X157901680Y-118495784D01*
X158033273Y-118461138D01*
X158037793Y-118459948D01*
X158156353Y-118409011D01*
X158266807Y-118361557D01*
X158266810Y-118361555D01*
X158271110Y-118359708D01*
X158275090Y-118357245D01*
X158275094Y-118357243D01*
X158483064Y-118228547D01*
X158483066Y-118228545D01*
X158487047Y-118226082D01*
X158585428Y-118142797D01*
X158677289Y-118065031D01*
X158677291Y-118065029D01*
X158680862Y-118062006D01*
X158848295Y-117871084D01*
X158985669Y-117657512D01*
X159089967Y-117425980D01*
X159158896Y-117181575D01*
X159190943Y-116929667D01*
X159193291Y-116840000D01*
X159174472Y-116586759D01*
X159118428Y-116339082D01*
X159116735Y-116334728D01*
X159028084Y-116106762D01*
X159028083Y-116106760D01*
X159026391Y-116102409D01*
X159005866Y-116066498D01*
X158902702Y-115885997D01*
X158902700Y-115885995D01*
X158900383Y-115881940D01*
X158743171Y-115682517D01*
X158558209Y-115508523D01*
X158514483Y-115478189D01*
X158353393Y-115366437D01*
X158353390Y-115366435D01*
X158349561Y-115363779D01*
X158345384Y-115361719D01*
X158345377Y-115361715D01*
X158125996Y-115253528D01*
X158125992Y-115253527D01*
X158121810Y-115251464D01*
X157879960Y-115174047D01*
X157875355Y-115173297D01*
X157633935Y-115133980D01*
X157633934Y-115133980D01*
X157629323Y-115133229D01*
X157502364Y-115131567D01*
X157380083Y-115129966D01*
X157380080Y-115129966D01*
X157375406Y-115129905D01*
X157123787Y-115164149D01*
X156879993Y-115235208D01*
X156649380Y-115341522D01*
X156645471Y-115344085D01*
X156440928Y-115478189D01*
X156440923Y-115478193D01*
X156437015Y-115480755D01*
X156247562Y-115649848D01*
X156085183Y-115845087D01*
X155953447Y-116062182D01*
X155951638Y-116066496D01*
X155951637Y-116066498D01*
X155925333Y-116129226D01*
X155880544Y-116184312D01*
X155809136Y-116206500D01*
X142318767Y-116206500D01*
X142307584Y-116205973D01*
X142300091Y-116204298D01*
X142292165Y-116204547D01*
X142292164Y-116204547D01*
X142232001Y-116206438D01*
X142228043Y-116206500D01*
X142200144Y-116206500D01*
X142196154Y-116207004D01*
X142184320Y-116207936D01*
X142140111Y-116209326D01*
X142132497Y-116211538D01*
X142132492Y-116211539D01*
X142120659Y-116214977D01*
X142101296Y-116218988D01*
X142081203Y-116221526D01*
X142073836Y-116224443D01*
X142073831Y-116224444D01*
X142040092Y-116237802D01*
X142028865Y-116241646D01*
X141986407Y-116253982D01*
X141979581Y-116258019D01*
X141968972Y-116264293D01*
X141951224Y-116272988D01*
X141932383Y-116280448D01*
X141925967Y-116285110D01*
X141925966Y-116285110D01*
X141896613Y-116306436D01*
X141886693Y-116312952D01*
X141855465Y-116331420D01*
X141855462Y-116331422D01*
X141848638Y-116335458D01*
X141834317Y-116349779D01*
X141819284Y-116362619D01*
X141802893Y-116374528D01*
X141797842Y-116380634D01*
X141774702Y-116408605D01*
X141766712Y-116417384D01*
X132578112Y-125605983D01*
X132515800Y-125640009D01*
X132451087Y-125635924D01*
X132450906Y-125636610D01*
X132447437Y-125635694D01*
X132446967Y-125635664D01*
X132445914Y-125635291D01*
X132445900Y-125635287D01*
X132441028Y-125633562D01*
X132435935Y-125632655D01*
X132435932Y-125632654D01*
X132218095Y-125593851D01*
X132218089Y-125593850D01*
X132213006Y-125592945D01*
X132140096Y-125592054D01*
X131986581Y-125590179D01*
X131986579Y-125590179D01*
X131981411Y-125590116D01*
X131752464Y-125625150D01*
X131532314Y-125697106D01*
X131527726Y-125699494D01*
X131527722Y-125699496D01*
X131331461Y-125801663D01*
X131326872Y-125804052D01*
X131322739Y-125807155D01*
X131322736Y-125807157D01*
X131145790Y-125940012D01*
X131141655Y-125943117D01*
X130981639Y-126110564D01*
X130851119Y-126301899D01*
X130753602Y-126511981D01*
X130691707Y-126735169D01*
X130667095Y-126965469D01*
X115898835Y-126965469D01*
X115883478Y-126940652D01*
X115758303Y-126815695D01*
X115635992Y-126740301D01*
X115613968Y-126726725D01*
X115613966Y-126726724D01*
X115607738Y-126722885D01*
X115527995Y-126696436D01*
X115446389Y-126669368D01*
X115446387Y-126669368D01*
X115439861Y-126667203D01*
X115433025Y-126666503D01*
X115433022Y-126666502D01*
X115389969Y-126662091D01*
X115335400Y-126656500D01*
X115059500Y-126656500D01*
X114991379Y-126636498D01*
X114944886Y-126582842D01*
X114933500Y-126530500D01*
X114933500Y-92897500D01*
X127149335Y-92897500D01*
X127167965Y-93134211D01*
X127223395Y-93365094D01*
X127314260Y-93584463D01*
X127316846Y-93588683D01*
X127435741Y-93782702D01*
X127435745Y-93782708D01*
X127438324Y-93786916D01*
X127592531Y-93967469D01*
X127773084Y-94121676D01*
X127777292Y-94124255D01*
X127777298Y-94124259D01*
X127971317Y-94243154D01*
X127975537Y-94245740D01*
X127980107Y-94247633D01*
X127980111Y-94247635D01*
X128190333Y-94334711D01*
X128194906Y-94336605D01*
X128275109Y-94355860D01*
X128420976Y-94390880D01*
X128420982Y-94390881D01*
X128425789Y-94392035D01*
X128662500Y-94410665D01*
X128899211Y-94392035D01*
X128904018Y-94390881D01*
X128904024Y-94390880D01*
X129049891Y-94355860D01*
X129130094Y-94336605D01*
X129134667Y-94334711D01*
X129344889Y-94247635D01*
X129344893Y-94247633D01*
X129349463Y-94245740D01*
X129353683Y-94243154D01*
X129547702Y-94124259D01*
X129547708Y-94124255D01*
X129551916Y-94121676D01*
X129732469Y-93967469D01*
X129886676Y-93786916D01*
X129889255Y-93782708D01*
X129889259Y-93782702D01*
X130008154Y-93588683D01*
X130010740Y-93584463D01*
X130101605Y-93365094D01*
X130157035Y-93134211D01*
X130175665Y-92897500D01*
X139149335Y-92897500D01*
X139167965Y-93134211D01*
X139223395Y-93365094D01*
X139314260Y-93584463D01*
X139316846Y-93588683D01*
X139435741Y-93782702D01*
X139435745Y-93782708D01*
X139438324Y-93786916D01*
X139592531Y-93967469D01*
X139773084Y-94121676D01*
X139777292Y-94124255D01*
X139777298Y-94124259D01*
X139971317Y-94243154D01*
X139975537Y-94245740D01*
X139980107Y-94247633D01*
X139980111Y-94247635D01*
X140190333Y-94334711D01*
X140194906Y-94336605D01*
X140275109Y-94355860D01*
X140420976Y-94390880D01*
X140420982Y-94390881D01*
X140425789Y-94392035D01*
X140662500Y-94410665D01*
X140899211Y-94392035D01*
X140904018Y-94390881D01*
X140904024Y-94390880D01*
X141049891Y-94355860D01*
X141130094Y-94336605D01*
X141134667Y-94334711D01*
X141344889Y-94247635D01*
X141344893Y-94247633D01*
X141349463Y-94245740D01*
X141353683Y-94243154D01*
X141547702Y-94124259D01*
X141547708Y-94124255D01*
X141551916Y-94121676D01*
X141732469Y-93967469D01*
X141886676Y-93786916D01*
X141889255Y-93782708D01*
X141889259Y-93782702D01*
X142008154Y-93588683D01*
X142010740Y-93584463D01*
X142101605Y-93365094D01*
X142157035Y-93134211D01*
X142175665Y-92897500D01*
X142157035Y-92660789D01*
X142101605Y-92429906D01*
X142010740Y-92210537D01*
X142008154Y-92206317D01*
X141889259Y-92012298D01*
X141889255Y-92012292D01*
X141886676Y-92008084D01*
X141732469Y-91827531D01*
X141551916Y-91673324D01*
X141547708Y-91670745D01*
X141547702Y-91670741D01*
X141353683Y-91551846D01*
X141349463Y-91549260D01*
X141344893Y-91547367D01*
X141344889Y-91547365D01*
X141134667Y-91460289D01*
X141134665Y-91460288D01*
X141130094Y-91458395D01*
X141049891Y-91439140D01*
X140904024Y-91404120D01*
X140904018Y-91404119D01*
X140899211Y-91402965D01*
X140662500Y-91384335D01*
X140425789Y-91402965D01*
X140420982Y-91404119D01*
X140420976Y-91404120D01*
X140275109Y-91439140D01*
X140194906Y-91458395D01*
X140190335Y-91460288D01*
X140190333Y-91460289D01*
X139980111Y-91547365D01*
X139980107Y-91547367D01*
X139975537Y-91549260D01*
X139971317Y-91551846D01*
X139777298Y-91670741D01*
X139777292Y-91670745D01*
X139773084Y-91673324D01*
X139592531Y-91827531D01*
X139438324Y-92008084D01*
X139435745Y-92012292D01*
X139435741Y-92012298D01*
X139316846Y-92206317D01*
X139314260Y-92210537D01*
X139223395Y-92429906D01*
X139167965Y-92660789D01*
X139149335Y-92897500D01*
X130175665Y-92897500D01*
X130157035Y-92660789D01*
X130101605Y-92429906D01*
X130010740Y-92210537D01*
X130008154Y-92206317D01*
X129889259Y-92012298D01*
X129889255Y-92012292D01*
X129886676Y-92008084D01*
X129732469Y-91827531D01*
X129551916Y-91673324D01*
X129547708Y-91670745D01*
X129547702Y-91670741D01*
X129353683Y-91551846D01*
X129349463Y-91549260D01*
X129344893Y-91547367D01*
X129344889Y-91547365D01*
X129134667Y-91460289D01*
X129134665Y-91460288D01*
X129130094Y-91458395D01*
X129049891Y-91439140D01*
X128904024Y-91404120D01*
X128904018Y-91404119D01*
X128899211Y-91402965D01*
X128662500Y-91384335D01*
X128425789Y-91402965D01*
X128420982Y-91404119D01*
X128420976Y-91404120D01*
X128275109Y-91439140D01*
X128194906Y-91458395D01*
X128190335Y-91460288D01*
X128190333Y-91460289D01*
X127980111Y-91547365D01*
X127980107Y-91547367D01*
X127975537Y-91549260D01*
X127971317Y-91551846D01*
X127777298Y-91670741D01*
X127777292Y-91670745D01*
X127773084Y-91673324D01*
X127592531Y-91827531D01*
X127438324Y-92008084D01*
X127435745Y-92012292D01*
X127435741Y-92012298D01*
X127316846Y-92206317D01*
X127314260Y-92210537D01*
X127223395Y-92429906D01*
X127167965Y-92660789D01*
X127149335Y-92897500D01*
X114933500Y-92897500D01*
X114933500Y-86897500D01*
X127149335Y-86897500D01*
X127167965Y-87134211D01*
X127169119Y-87139018D01*
X127169120Y-87139024D01*
X127196685Y-87253839D01*
X127223395Y-87365094D01*
X127225288Y-87369665D01*
X127225289Y-87369667D01*
X127285612Y-87515299D01*
X127314260Y-87584463D01*
X127316846Y-87588683D01*
X127435741Y-87782702D01*
X127435745Y-87782708D01*
X127438324Y-87786916D01*
X127592531Y-87967469D01*
X127596287Y-87970677D01*
X127605886Y-87978875D01*
X127773084Y-88121676D01*
X127777292Y-88124255D01*
X127777298Y-88124259D01*
X127914281Y-88208202D01*
X127975537Y-88245740D01*
X127980107Y-88247633D01*
X127980111Y-88247635D01*
X128182405Y-88331427D01*
X128194906Y-88336605D01*
X128274109Y-88355620D01*
X128420976Y-88390880D01*
X128420982Y-88390881D01*
X128425789Y-88392035D01*
X128662500Y-88410665D01*
X128899211Y-88392035D01*
X128904018Y-88390881D01*
X128904024Y-88390880D01*
X129050891Y-88355620D01*
X129130094Y-88336605D01*
X129142595Y-88331427D01*
X129213185Y-88323839D01*
X129276671Y-88355620D01*
X129312898Y-88416679D01*
X129316098Y-88461226D01*
X129299751Y-88614195D01*
X129300048Y-88619348D01*
X129300048Y-88619351D01*
X129305511Y-88714090D01*
X129312610Y-88837215D01*
X129313747Y-88842261D01*
X129313748Y-88842267D01*
X129333619Y-88930439D01*
X129361722Y-89055139D01*
X129445766Y-89262116D01*
X129562487Y-89452588D01*
X129708750Y-89621438D01*
X129880626Y-89764132D01*
X130073500Y-89876838D01*
X130282192Y-89956530D01*
X130287260Y-89957561D01*
X130287263Y-89957562D01*
X130394517Y-89979383D01*
X130501097Y-90001067D01*
X130506272Y-90001257D01*
X130506274Y-90001257D01*
X130719173Y-90009064D01*
X130719177Y-90009064D01*
X130724337Y-90009253D01*
X130729457Y-90008597D01*
X130729459Y-90008597D01*
X130940788Y-89981525D01*
X130940789Y-89981525D01*
X130945916Y-89980868D01*
X130950866Y-89979383D01*
X131154929Y-89918161D01*
X131154934Y-89918159D01*
X131159884Y-89916674D01*
X131360494Y-89818396D01*
X131542360Y-89688673D01*
X131700596Y-89530989D01*
X131760094Y-89448189D01*
X131827935Y-89353777D01*
X131830953Y-89349577D01*
X131834645Y-89342108D01*
X131927636Y-89153953D01*
X131927637Y-89153951D01*
X131929930Y-89149311D01*
X131994870Y-88935569D01*
X132024029Y-88714090D01*
X132025656Y-88647500D01*
X132007352Y-88424861D01*
X131952931Y-88208202D01*
X131863854Y-88003340D01*
X131823099Y-87940342D01*
X131745322Y-87820117D01*
X131745320Y-87820114D01*
X131742514Y-87815777D01*
X131592170Y-87650551D01*
X131588119Y-87647352D01*
X131588115Y-87647348D01*
X131420914Y-87515300D01*
X131420910Y-87515298D01*
X131416859Y-87512098D01*
X131412329Y-87509597D01*
X131253499Y-87421919D01*
X131221289Y-87404138D01*
X131216420Y-87402414D01*
X131216416Y-87402412D01*
X131015587Y-87331295D01*
X131015583Y-87331294D01*
X131010712Y-87329569D01*
X131005619Y-87328662D01*
X131005616Y-87328661D01*
X130795873Y-87291300D01*
X130795867Y-87291299D01*
X130790784Y-87290394D01*
X130716952Y-87289492D01*
X130572581Y-87287728D01*
X130572579Y-87287728D01*
X130567411Y-87287665D01*
X130346591Y-87321455D01*
X130316486Y-87331295D01*
X130306407Y-87334589D01*
X130235443Y-87336740D01*
X130174581Y-87300184D01*
X130143145Y-87236526D01*
X130144744Y-87185409D01*
X130155878Y-87139033D01*
X130155879Y-87139025D01*
X130157035Y-87134211D01*
X130175665Y-86897500D01*
X130157035Y-86660789D01*
X130101605Y-86429906D01*
X130010740Y-86210537D01*
X130008154Y-86206317D01*
X129889259Y-86012298D01*
X129889255Y-86012292D01*
X129886676Y-86008084D01*
X129732469Y-85827531D01*
X129551916Y-85673324D01*
X129547708Y-85670745D01*
X129547702Y-85670741D01*
X129353683Y-85551846D01*
X129349463Y-85549260D01*
X129344893Y-85547367D01*
X129344889Y-85547365D01*
X129134667Y-85460289D01*
X129134665Y-85460288D01*
X129130094Y-85458395D01*
X129049891Y-85439140D01*
X128904024Y-85404120D01*
X128904018Y-85404119D01*
X128899211Y-85402965D01*
X128662500Y-85384335D01*
X128425789Y-85402965D01*
X128420982Y-85404119D01*
X128420976Y-85404120D01*
X128275109Y-85439140D01*
X128194906Y-85458395D01*
X128190335Y-85460288D01*
X128190333Y-85460289D01*
X127980111Y-85547365D01*
X127980107Y-85547367D01*
X127975537Y-85549260D01*
X127971317Y-85551846D01*
X127777298Y-85670741D01*
X127777292Y-85670745D01*
X127773084Y-85673324D01*
X127592531Y-85827531D01*
X127438324Y-86008084D01*
X127435745Y-86012292D01*
X127435741Y-86012298D01*
X127316846Y-86206317D01*
X127314260Y-86210537D01*
X127223395Y-86429906D01*
X127167965Y-86660789D01*
X127149335Y-86897500D01*
X114933500Y-86897500D01*
X114933500Y-75330425D01*
X114953502Y-75262304D01*
X115009763Y-75214657D01*
X115091110Y-75179708D01*
X115095090Y-75177245D01*
X115095094Y-75177243D01*
X115303064Y-75048547D01*
X115303066Y-75048545D01*
X115307047Y-75046082D01*
X115405428Y-74962797D01*
X115497289Y-74885031D01*
X115497291Y-74885029D01*
X115500862Y-74882006D01*
X115668295Y-74691084D01*
X115805669Y-74477512D01*
X115909967Y-74245980D01*
X115978896Y-74001575D01*
X115996382Y-73864126D01*
X116010545Y-73752798D01*
X116010545Y-73752792D01*
X116010943Y-73749667D01*
X116011127Y-73742665D01*
X116013208Y-73663160D01*
X116013291Y-73660000D01*
X116009958Y-73615151D01*
X132907296Y-73615151D01*
X132919480Y-73868798D01*
X132941679Y-73980399D01*
X132967467Y-74110043D01*
X132969021Y-74117857D01*
X132970600Y-74122255D01*
X132970602Y-74122262D01*
X133015022Y-74245980D01*
X133054831Y-74356858D01*
X133175025Y-74580551D01*
X133177820Y-74584294D01*
X133177822Y-74584297D01*
X133324171Y-74780282D01*
X133324176Y-74780288D01*
X133326963Y-74784020D01*
X133330272Y-74787300D01*
X133330277Y-74787306D01*
X133428859Y-74885031D01*
X133507307Y-74962797D01*
X133511069Y-74965555D01*
X133511072Y-74965558D01*
X133616764Y-75043054D01*
X133712094Y-75112953D01*
X133716231Y-75115129D01*
X133716238Y-75115134D01*
X133919167Y-75221900D01*
X133970140Y-75271319D01*
X133986500Y-75333408D01*
X133986500Y-87393218D01*
X133966498Y-87461339D01*
X133935014Y-87492551D01*
X133936107Y-87494007D01*
X133815631Y-87584463D01*
X133757465Y-87628135D01*
X133603129Y-87789638D01*
X133477243Y-87974180D01*
X133438511Y-88057621D01*
X133401971Y-88136341D01*
X133383188Y-88176805D01*
X133323489Y-88392070D01*
X133299751Y-88614195D01*
X133300048Y-88619348D01*
X133300048Y-88619351D01*
X133305511Y-88714090D01*
X133312610Y-88837215D01*
X133313747Y-88842261D01*
X133313748Y-88842267D01*
X133333619Y-88930439D01*
X133361722Y-89055139D01*
X133445766Y-89262116D01*
X133562487Y-89452588D01*
X133708750Y-89621438D01*
X133880626Y-89764132D01*
X134073500Y-89876838D01*
X134282192Y-89956530D01*
X134287260Y-89957561D01*
X134287263Y-89957562D01*
X134394517Y-89979383D01*
X134501097Y-90001067D01*
X134506272Y-90001257D01*
X134506274Y-90001257D01*
X134719173Y-90009064D01*
X134719177Y-90009064D01*
X134724337Y-90009253D01*
X134729457Y-90008597D01*
X134729459Y-90008597D01*
X134940788Y-89981525D01*
X134940789Y-89981525D01*
X134945916Y-89980868D01*
X134950866Y-89979383D01*
X135154929Y-89918161D01*
X135154934Y-89918159D01*
X135159884Y-89916674D01*
X135360494Y-89818396D01*
X135542360Y-89688673D01*
X135700596Y-89530989D01*
X135760094Y-89448189D01*
X135827935Y-89353777D01*
X135830953Y-89349577D01*
X135834645Y-89342108D01*
X135927636Y-89153953D01*
X135927637Y-89153951D01*
X135929930Y-89149311D01*
X135994870Y-88935569D01*
X136024029Y-88714090D01*
X136025656Y-88647500D01*
X136022918Y-88614195D01*
X137299751Y-88614195D01*
X137300048Y-88619348D01*
X137300048Y-88619351D01*
X137305511Y-88714090D01*
X137312610Y-88837215D01*
X137313747Y-88842261D01*
X137313748Y-88842267D01*
X137333619Y-88930439D01*
X137361722Y-89055139D01*
X137445766Y-89262116D01*
X137562487Y-89452588D01*
X137708750Y-89621438D01*
X137880626Y-89764132D01*
X138073500Y-89876838D01*
X138282192Y-89956530D01*
X138287260Y-89957561D01*
X138287263Y-89957562D01*
X138394517Y-89979383D01*
X138501097Y-90001067D01*
X138506272Y-90001257D01*
X138506274Y-90001257D01*
X138719173Y-90009064D01*
X138719177Y-90009064D01*
X138724337Y-90009253D01*
X138729457Y-90008597D01*
X138729459Y-90008597D01*
X138940788Y-89981525D01*
X138940789Y-89981525D01*
X138945916Y-89980868D01*
X138950866Y-89979383D01*
X139154929Y-89918161D01*
X139154934Y-89918159D01*
X139159884Y-89916674D01*
X139360494Y-89818396D01*
X139542360Y-89688673D01*
X139700596Y-89530989D01*
X139760094Y-89448189D01*
X139827935Y-89353777D01*
X139830953Y-89349577D01*
X139833246Y-89344937D01*
X139834946Y-89342108D01*
X139887174Y-89294018D01*
X139942951Y-89281000D01*
X149292906Y-89281000D01*
X149361027Y-89301002D01*
X149382001Y-89317905D01*
X155850154Y-95786058D01*
X155884180Y-95848370D01*
X155877256Y-95923877D01*
X155855246Y-95976365D01*
X155854095Y-95980897D01*
X155854094Y-95980900D01*
X155832731Y-96065016D01*
X155792738Y-96222490D01*
X155767296Y-96475151D01*
X155779480Y-96728798D01*
X155829021Y-96977857D01*
X155830600Y-96982255D01*
X155830602Y-96982262D01*
X155892083Y-97153500D01*
X155914831Y-97216858D01*
X156035025Y-97440551D01*
X156037820Y-97444294D01*
X156037822Y-97444297D01*
X156184171Y-97640282D01*
X156184176Y-97640288D01*
X156186963Y-97644020D01*
X156190272Y-97647300D01*
X156190277Y-97647306D01*
X156288859Y-97745031D01*
X156367307Y-97822797D01*
X156371069Y-97825555D01*
X156371072Y-97825558D01*
X156476764Y-97903054D01*
X156572094Y-97972953D01*
X156576229Y-97975129D01*
X156576233Y-97975131D01*
X156694289Y-98037243D01*
X156796827Y-98091191D01*
X157036568Y-98174912D01*
X157286050Y-98222278D01*
X157406532Y-98227011D01*
X157535125Y-98232064D01*
X157535130Y-98232064D01*
X157539793Y-98232247D01*
X157638774Y-98221407D01*
X157787569Y-98205112D01*
X157787575Y-98205111D01*
X157792222Y-98204602D01*
X157901680Y-98175784D01*
X158033273Y-98141138D01*
X158037793Y-98139948D01*
X158156353Y-98089011D01*
X158266807Y-98041557D01*
X158266810Y-98041555D01*
X158271110Y-98039708D01*
X158275090Y-98037245D01*
X158275094Y-98037243D01*
X158483064Y-97908547D01*
X158483066Y-97908545D01*
X158487047Y-97906082D01*
X158585428Y-97822797D01*
X158677289Y-97745031D01*
X158677291Y-97745029D01*
X158680862Y-97742006D01*
X158848295Y-97551084D01*
X158985669Y-97337512D01*
X159035114Y-97227749D01*
X159081330Y-97173855D01*
X159149996Y-97153500D01*
X163245406Y-97153500D01*
X163313527Y-97173502D01*
X163334501Y-97190405D01*
X194430677Y-128286581D01*
X194464703Y-128348893D01*
X194459638Y-128419708D01*
X194417091Y-128476544D01*
X194362920Y-128499856D01*
X194337697Y-128504190D01*
X194326577Y-128507170D01*
X194146365Y-128573653D01*
X194135991Y-128578601D01*
X194052385Y-128628342D01*
X194042788Y-128638675D01*
X194046275Y-128647064D01*
X194620000Y-129220790D01*
X195550236Y-130151025D01*
X195564179Y-130158638D01*
X195595421Y-130156404D01*
X195664795Y-130171496D01*
X195707305Y-130209363D01*
X195773479Y-130302997D01*
X195919410Y-130445157D01*
X195924206Y-130448362D01*
X195924209Y-130448364D01*
X196049227Y-130531898D01*
X196088803Y-130558342D01*
X196094106Y-130560620D01*
X196094109Y-130560622D01*
X196270680Y-130636483D01*
X196275987Y-130638763D01*
X196348817Y-130655243D01*
X196469055Y-130682450D01*
X196469060Y-130682451D01*
X196474692Y-130683725D01*
X196480463Y-130683952D01*
X196480465Y-130683952D01*
X196543470Y-130686427D01*
X196678263Y-130691723D01*
X196879883Y-130662490D01*
X196885347Y-130660635D01*
X196885352Y-130660634D01*
X197067327Y-130598862D01*
X197067332Y-130598860D01*
X197072799Y-130597004D01*
X197078653Y-130593726D01*
X197189054Y-130531898D01*
X197250551Y-130497458D01*
X197407186Y-130367186D01*
X197537458Y-130210551D01*
X197637004Y-130032799D01*
X197638860Y-130027332D01*
X197638862Y-130027327D01*
X197700634Y-129845352D01*
X197700635Y-129845347D01*
X197702490Y-129839883D01*
X197731723Y-129638263D01*
X197733249Y-129580000D01*
X197721860Y-129456049D01*
X197715137Y-129382880D01*
X197715136Y-129382877D01*
X197714608Y-129377126D01*
X197705021Y-129343132D01*
X197660875Y-129186606D01*
X197660874Y-129186604D01*
X197659307Y-129181047D01*
X197648776Y-129159691D01*
X197571756Y-129003510D01*
X197569201Y-128998329D01*
X197475987Y-128873500D01*
X197450758Y-128839715D01*
X197450758Y-128839714D01*
X197447305Y-128835091D01*
X197311046Y-128709134D01*
X197301943Y-128700719D01*
X197301940Y-128700717D01*
X197297703Y-128696800D01*
X197205580Y-128638675D01*
X197130288Y-128591169D01*
X197130283Y-128591167D01*
X197125404Y-128588088D01*
X196936180Y-128512595D01*
X196736366Y-128472849D01*
X196730592Y-128472773D01*
X196730588Y-128472773D01*
X196627452Y-128471424D01*
X196532655Y-128470183D01*
X196526962Y-128471161D01*
X196526952Y-128471162D01*
X196488944Y-128477693D01*
X196418420Y-128469515D01*
X196378513Y-128442608D01*
X164063652Y-96127747D01*
X164056112Y-96119461D01*
X164052000Y-96112982D01*
X164002348Y-96066356D01*
X163999507Y-96063602D01*
X163979770Y-96043865D01*
X163976573Y-96041385D01*
X163967551Y-96033680D01*
X163941100Y-96008841D01*
X163935321Y-96003414D01*
X163928375Y-95999595D01*
X163928372Y-95999593D01*
X163917566Y-95993652D01*
X163901047Y-95982801D01*
X163892749Y-95976365D01*
X163885041Y-95970386D01*
X163877772Y-95967241D01*
X163877768Y-95967238D01*
X163844463Y-95952826D01*
X163833813Y-95947609D01*
X163795060Y-95926305D01*
X163785616Y-95923880D01*
X163775438Y-95921267D01*
X163756734Y-95914863D01*
X163745420Y-95909967D01*
X163745419Y-95909967D01*
X163738145Y-95906819D01*
X163730322Y-95905580D01*
X163730312Y-95905577D01*
X163694476Y-95899901D01*
X163682856Y-95897495D01*
X163647711Y-95888472D01*
X163647710Y-95888472D01*
X163640030Y-95886500D01*
X163619776Y-95886500D01*
X163600065Y-95884949D01*
X163587886Y-95883020D01*
X163580057Y-95881780D01*
X163572165Y-95882526D01*
X163536039Y-95885941D01*
X163524181Y-95886500D01*
X159153063Y-95886500D01*
X159084942Y-95866498D01*
X159038449Y-95812842D01*
X159035630Y-95806167D01*
X159028084Y-95786762D01*
X159028083Y-95786760D01*
X159026391Y-95782409D01*
X158900383Y-95561940D01*
X158743171Y-95362517D01*
X158558209Y-95188523D01*
X158532831Y-95170918D01*
X158353393Y-95046437D01*
X158353390Y-95046435D01*
X158349561Y-95043779D01*
X158345384Y-95041719D01*
X158345377Y-95041715D01*
X158125996Y-94933528D01*
X158125992Y-94933527D01*
X158121810Y-94931464D01*
X157879960Y-94854047D01*
X157875355Y-94853297D01*
X157633935Y-94813980D01*
X157633934Y-94813980D01*
X157629323Y-94813229D01*
X157502364Y-94811567D01*
X157380083Y-94809966D01*
X157380080Y-94809966D01*
X157375406Y-94809905D01*
X157123787Y-94844149D01*
X157119301Y-94845457D01*
X157119299Y-94845457D01*
X156884484Y-94913899D01*
X156879993Y-94915208D01*
X156876657Y-94916746D01*
X156806107Y-94921844D01*
X156743704Y-94887799D01*
X150111152Y-88255247D01*
X150103612Y-88246961D01*
X150099500Y-88240482D01*
X150049848Y-88193856D01*
X150047007Y-88191102D01*
X150027270Y-88171365D01*
X150024073Y-88168885D01*
X150015051Y-88161180D01*
X149988600Y-88136341D01*
X149982821Y-88130914D01*
X149975875Y-88127095D01*
X149975872Y-88127093D01*
X149965066Y-88121152D01*
X149948547Y-88110301D01*
X149948083Y-88109941D01*
X149932541Y-88097886D01*
X149925272Y-88094741D01*
X149925268Y-88094738D01*
X149891963Y-88080326D01*
X149881313Y-88075109D01*
X149842560Y-88053805D01*
X149822937Y-88048767D01*
X149804234Y-88042363D01*
X149792920Y-88037467D01*
X149792919Y-88037467D01*
X149785645Y-88034319D01*
X149777822Y-88033080D01*
X149777812Y-88033077D01*
X149741976Y-88027401D01*
X149730356Y-88024995D01*
X149695211Y-88015972D01*
X149695210Y-88015972D01*
X149687530Y-88014000D01*
X149667276Y-88014000D01*
X149647565Y-88012449D01*
X149635386Y-88010520D01*
X149627557Y-88009280D01*
X149619665Y-88010026D01*
X149583539Y-88013441D01*
X149571681Y-88014000D01*
X141966043Y-88014000D01*
X141897922Y-87993998D01*
X141851429Y-87940342D01*
X141841325Y-87870068D01*
X141870233Y-87806168D01*
X141883465Y-87790676D01*
X141883467Y-87790673D01*
X141886676Y-87786916D01*
X141889255Y-87782708D01*
X141889259Y-87782702D01*
X142008154Y-87588683D01*
X142010740Y-87584463D01*
X142039389Y-87515299D01*
X142099711Y-87369667D01*
X142099712Y-87369665D01*
X142101605Y-87365094D01*
X142128315Y-87253839D01*
X142155880Y-87139024D01*
X142155881Y-87139018D01*
X142157035Y-87134211D01*
X142175665Y-86897500D01*
X142157035Y-86660789D01*
X142101605Y-86429906D01*
X142010740Y-86210537D01*
X142008154Y-86206317D01*
X141889259Y-86012298D01*
X141889255Y-86012292D01*
X141886676Y-86008084D01*
X141732469Y-85827531D01*
X141551916Y-85673324D01*
X141547708Y-85670745D01*
X141547702Y-85670741D01*
X141353683Y-85551846D01*
X141349463Y-85549260D01*
X141344893Y-85547367D01*
X141344889Y-85547365D01*
X141134667Y-85460289D01*
X141134665Y-85460288D01*
X141130094Y-85458395D01*
X141049891Y-85439140D01*
X140904024Y-85404120D01*
X140904018Y-85404119D01*
X140899211Y-85402965D01*
X140662500Y-85384335D01*
X140425789Y-85402965D01*
X140420982Y-85404119D01*
X140420976Y-85404120D01*
X140275109Y-85439140D01*
X140194906Y-85458395D01*
X140190335Y-85460288D01*
X140190333Y-85460289D01*
X139980111Y-85547365D01*
X139980107Y-85547367D01*
X139975537Y-85549260D01*
X139971317Y-85551846D01*
X139777298Y-85670741D01*
X139777292Y-85670745D01*
X139773084Y-85673324D01*
X139592531Y-85827531D01*
X139438324Y-86008084D01*
X139435745Y-86012292D01*
X139435741Y-86012298D01*
X139316846Y-86206317D01*
X139314260Y-86210537D01*
X139223395Y-86429906D01*
X139167965Y-86660789D01*
X139149335Y-86897500D01*
X139167965Y-87134211D01*
X139169121Y-87139024D01*
X139169121Y-87139027D01*
X139179661Y-87182931D01*
X139176113Y-87253839D01*
X139134793Y-87311572D01*
X139068820Y-87337802D01*
X139020799Y-87331826D01*
X139020590Y-87332617D01*
X139015586Y-87331295D01*
X139010712Y-87329569D01*
X139005619Y-87328662D01*
X139005616Y-87328661D01*
X138795873Y-87291300D01*
X138795867Y-87291299D01*
X138790784Y-87290394D01*
X138716952Y-87289492D01*
X138572581Y-87287728D01*
X138572579Y-87287728D01*
X138567411Y-87287665D01*
X138346591Y-87321455D01*
X138134256Y-87390857D01*
X138103943Y-87406637D01*
X137998862Y-87461339D01*
X137936107Y-87494007D01*
X137931974Y-87497110D01*
X137931971Y-87497112D01*
X137810010Y-87588683D01*
X137757465Y-87628135D01*
X137603129Y-87789638D01*
X137477243Y-87974180D01*
X137438511Y-88057621D01*
X137401971Y-88136341D01*
X137383188Y-88176805D01*
X137323489Y-88392070D01*
X137299751Y-88614195D01*
X136022918Y-88614195D01*
X136007352Y-88424861D01*
X135952931Y-88208202D01*
X135863854Y-88003340D01*
X135823099Y-87940342D01*
X135745322Y-87820117D01*
X135745320Y-87820114D01*
X135742514Y-87815777D01*
X135592170Y-87650551D01*
X135588119Y-87647352D01*
X135588115Y-87647348D01*
X135420912Y-87515299D01*
X135416859Y-87512098D01*
X135412344Y-87509605D01*
X135412331Y-87509597D01*
X135318606Y-87457858D01*
X135268636Y-87407426D01*
X135253500Y-87347550D01*
X135253500Y-75330425D01*
X135273502Y-75262304D01*
X135329763Y-75214657D01*
X135411110Y-75179708D01*
X135415090Y-75177245D01*
X135415094Y-75177243D01*
X135623064Y-75048547D01*
X135623066Y-75048545D01*
X135627047Y-75046082D01*
X135725428Y-74962797D01*
X135817289Y-74885031D01*
X135817291Y-74885029D01*
X135820862Y-74882006D01*
X135988295Y-74691084D01*
X136125669Y-74477512D01*
X136229967Y-74245980D01*
X136298896Y-74001575D01*
X136316382Y-73864126D01*
X136330545Y-73752798D01*
X136330545Y-73752792D01*
X136330943Y-73749667D01*
X136331127Y-73742665D01*
X136333208Y-73663160D01*
X136333291Y-73660000D01*
X136325269Y-73552047D01*
X136314818Y-73411411D01*
X136314817Y-73411407D01*
X136314472Y-73406759D01*
X136297871Y-73333391D01*
X136259459Y-73163639D01*
X136258428Y-73159082D01*
X136221673Y-73064567D01*
X136168084Y-72926762D01*
X136168083Y-72926760D01*
X136166391Y-72922409D01*
X136145866Y-72886498D01*
X136042702Y-72705997D01*
X136042700Y-72705995D01*
X136040383Y-72701940D01*
X135883171Y-72502517D01*
X135698209Y-72328523D01*
X135654483Y-72298189D01*
X135493393Y-72186437D01*
X135493390Y-72186435D01*
X135489561Y-72183779D01*
X135485384Y-72181719D01*
X135485377Y-72181715D01*
X135265996Y-72073528D01*
X135265992Y-72073527D01*
X135261810Y-72071464D01*
X135019960Y-71994047D01*
X135015355Y-71993297D01*
X134773935Y-71953980D01*
X134773934Y-71953980D01*
X134769323Y-71953229D01*
X134642365Y-71951567D01*
X134520083Y-71949966D01*
X134520080Y-71949966D01*
X134515406Y-71949905D01*
X134263787Y-71984149D01*
X134019993Y-72055208D01*
X133789380Y-72161522D01*
X133785471Y-72164085D01*
X133580928Y-72298189D01*
X133580923Y-72298193D01*
X133577015Y-72300755D01*
X133387562Y-72469848D01*
X133225183Y-72665087D01*
X133093447Y-72882182D01*
X133091638Y-72886496D01*
X133091637Y-72886498D01*
X133001029Y-73102575D01*
X132995246Y-73116365D01*
X132994095Y-73120897D01*
X132994094Y-73120900D01*
X132964268Y-73238342D01*
X132932738Y-73362490D01*
X132907296Y-73615151D01*
X116009958Y-73615151D01*
X116005269Y-73552047D01*
X115994818Y-73411411D01*
X115994817Y-73411407D01*
X115994472Y-73406759D01*
X115977871Y-73333391D01*
X115939459Y-73163639D01*
X115938428Y-73159082D01*
X115901673Y-73064567D01*
X115848084Y-72926762D01*
X115848083Y-72926760D01*
X115846391Y-72922409D01*
X115825866Y-72886498D01*
X115722702Y-72705997D01*
X115722700Y-72705995D01*
X115720383Y-72701940D01*
X115563171Y-72502517D01*
X115378209Y-72328523D01*
X115334483Y-72298189D01*
X115173393Y-72186437D01*
X115173390Y-72186435D01*
X115169561Y-72183779D01*
X115165384Y-72181719D01*
X115165377Y-72181715D01*
X114945996Y-72073528D01*
X114945992Y-72073527D01*
X114941810Y-72071464D01*
X114699960Y-71994047D01*
X114695355Y-71993297D01*
X114453935Y-71953980D01*
X114453934Y-71953980D01*
X114449323Y-71953229D01*
X114322365Y-71951567D01*
X114200083Y-71949966D01*
X114200080Y-71949966D01*
X114195406Y-71949905D01*
X113943787Y-71984149D01*
X113699993Y-72055208D01*
X113469380Y-72161522D01*
X113465471Y-72164085D01*
X113260928Y-72298189D01*
X113260923Y-72298193D01*
X113257015Y-72300755D01*
X113067562Y-72469848D01*
X112905183Y-72665087D01*
X112773447Y-72882182D01*
X112771638Y-72886496D01*
X112771637Y-72886498D01*
X112681029Y-73102575D01*
X112675246Y-73116365D01*
X112674095Y-73120897D01*
X112674094Y-73120900D01*
X112644268Y-73238342D01*
X112612738Y-73362490D01*
X112587296Y-73615151D01*
X106680000Y-73615151D01*
X106680000Y-68706000D01*
X106700002Y-68637879D01*
X106753658Y-68591386D01*
X106806000Y-68580000D01*
X196058008Y-68580000D01*
X196126129Y-68600002D01*
G37*
%TD.AperFunction*%
%TD*%
M02*
